<svg width="201" height="115" viewBox="0 0 201 115" fill="none" xmlns="http://www.w3.org/2000/svg">
<path d="M184.25 43.125H150.75V57.5H184.25V43.125ZM201 57.5H184.25V100.625H201V57.5ZM184.25 100.625H16.75V115H184.25V100.625ZM16.75 57.5H0V100.625H16.75V57.5ZM33.5 43.125H16.75V57.5H33.5V43.125ZM67 28.75H33.5V43.125H67V28.75ZM134 0H83.75V14.375H134V0ZM83.75 14.375H67V28.75H83.75V14.375ZM83.75 43.125H67V57.5H83.75V43.125ZM150.75 14.375H134V28.75H150.75V14.375Z" fill="#323231"/>
<path d="M167.5 28.75H150.75V57.5H167.5V28.75ZM150.75 57.5H134V71.875H150.75V57.5Z" fill="#323231"/>
</svg>
