<svg width="35" height="35" viewBox="0 0 35 35" fill="none" xmlns="http://www.w3.org/2000/svg">
<path d="M17.5 0C15.2019 0 12.9262 0.452651 10.803 1.33211C8.67984 2.21157 6.75066 3.50061 5.12563 5.12563C1.84374 8.40752 0 12.8587 0 17.5C0 25.235 5.0225 31.7975 11.97 34.125C12.845 34.265 13.125 33.7225 13.125 33.25V30.2925C8.2775 31.3425 7.245 27.9475 7.245 27.9475C6.44 25.9175 5.3025 25.375 5.3025 25.375C3.71 24.29 5.425 24.325 5.425 24.325C7.175 24.4475 8.1025 26.1275 8.1025 26.1275C9.625 28.7875 12.1975 28 13.195 27.58C13.3525 26.4425 13.8075 25.6725 14.2975 25.235C10.4125 24.7975 6.335 23.2925 6.335 16.625C6.335 14.6825 7 13.125 8.1375 11.8825C7.9625 11.445 7.35 9.625 8.3125 7.2625C8.3125 7.2625 9.7825 6.79 13.125 9.0475C14.5075 8.6625 16.0125 8.47 17.5 8.47C18.9875 8.47 20.4925 8.6625 21.875 9.0475C25.2175 6.79 26.6875 7.2625 26.6875 7.2625C27.65 9.625 27.0375 11.445 26.8625 11.8825C28 13.125 28.665 14.6825 28.665 16.625C28.665 23.31 24.57 24.78 20.6675 25.2175C21.2975 25.76 21.875 26.8275 21.875 28.455V33.25C21.875 33.7225 22.155 34.2825 23.0475 34.125C29.995 31.78 35 25.235 35 17.5C35 15.2019 34.5474 12.9262 33.6679 10.803C32.7884 8.67984 31.4994 6.75066 29.8744 5.12563C28.2493 3.50061 26.3202 2.21157 24.197 1.33211C22.0738 0.452651 19.7981 0 17.5 0Z" fill="black"/>
</svg>
