<svg width="42" height="42" viewBox="0 0 42 42" fill="none" xmlns="http://www.w3.org/2000/svg">
<path fill-rule="evenodd" clip-rule="evenodd" d="M0.258057 20.361V33.408C0.258844 33.7705 0.331013 34.1292 0.470443 34.4638C0.609874 34.7984 0.813836 35.1022 1.07068 35.3579C1.32753 35.6136 1.63223 35.8163 1.96739 35.9543C2.30255 36.0922 2.66161 36.1628 3.02406 36.162H11.3191V27.522L0.258057 20.361ZM27.1891 25.581L21.1291 29.502L15.0691 25.581V10.761L21.1291 14.649L27.1891 10.761V25.581ZM30.9391 27.522V36.162H39.2341C39.5965 36.1628 39.9556 36.0922 40.2907 35.9543C40.6259 35.8163 40.9306 35.6136 41.1874 35.3579C41.4443 35.1022 41.6482 34.7984 41.7877 34.4638C41.9271 34.1292 41.9993 33.7705 42.0001 33.408V20.358L30.9391 27.522ZM42.0001 15.99L30.9391 23.151V8.35204L33.4801 6.72004C37.1581 4.36504 42.0001 6.99604 42.0001 11.358V15.99ZM11.3191 8.35204V23.154L0.258057 15.99V11.358C0.258057 6.99604 5.10006 4.36504 8.77806 6.72004L11.3191 8.35204Z" fill="black"/>
</svg>
