<?xml version="1.0" encoding="UTF-8"?>
<svg version="1.1" xmlns="http://www.w3.org/2000/svg" width="1084" height="768">
<path d="M0 0 C357.72 0 715.44 0 1084 0 C1084 253.44 1084 506.88 1084 768 C726.28 768 368.56 768 0 768 C0 514.56 0 261.12 0 0 Z " fill="#66BFC4" transform="translate(0,0)"/>
<path d="M0 0 C1.58779982 -0.01298157 1.58779982 -0.01298157 3.20767641 -0.02622539 C6.75482378 -0.04781713 10.30040346 -0.02651803 13.84753418 -0.00532532 C16.3903834 -0.01181825 18.93322718 -0.02087907 21.47605896 -0.03231812 C27.66577125 -0.05301974 33.85490238 -0.04567444 40.04459751 -0.02481725 C45.07542435 -0.00852676 50.10612796 -0.00433525 55.13697815 -0.00878334 C56.21138808 -0.00972935 56.21138808 -0.00972935 57.30750325 -0.01069448 C58.76264269 -0.01204055 60.2177821 -0.01342012 61.67292148 -0.01483283 C75.31475549 -0.02676712 88.95634191 -0.00271013 102.59811956 0.03418525 C114.30097437 0.06507789 126.00354417 0.06744904 137.7064209 0.04838562 C151.29971842 0.02626826 164.8928562 0.02013404 178.48616171 0.04070824 C179.93591911 0.04287116 181.38567652 0.04502026 182.83543396 0.04715538 C183.54872432 0.04822175 184.26201468 0.04928811 184.9969199 0.05038679 C190.02113386 0.05685365 195.04526557 0.05209331 200.06947327 0.04313087 C206.83296815 0.03148856 213.59590033 0.04667663 220.35934639 0.07987404 C222.84338105 0.08809157 225.3274605 0.08778527 227.81149101 0.07839584 C231.19901533 0.06699641 234.5850099 0.08630696 237.97241211 0.11352539 C239.45169087 0.09781816 239.45169087 0.09781816 240.96085405 0.08179361 C245.43243118 0.14886113 248.52066621 0.300974 252.08081818 3.17027569 C255.14608048 6.46429222 255.61085656 7.86046593 255.64733887 12.21733093 C255.65694641 13.14201675 255.66655396 14.06670258 255.67645264 15.01940918 C255.68282745 16.52249886 255.68282745 16.52249886 255.68933105 18.05595398 C255.69503113 19.08447983 255.7007312 20.11300568 255.706604 21.17269897 C255.71606225 23.3524421 255.72259125 25.53219959 255.72644043 27.71195984 C255.73613622 31.04367624 255.76714821 34.37477333 255.79870605 37.7063446 C255.80523699 39.82287739 255.8104871 41.9394146 255.81433105 44.05595398 C255.82667786 45.05194107 255.83902466 46.04792816 255.85174561 47.07409668 C255.82352062 55.85959761 255.82352062 55.85959761 252.48620605 59.75517273 C249.59346704 62.29265493 247.82392729 63.1305325 243.981493 63.13828278 C243.07851294 63.14733942 242.17553288 63.15639606 241.24518979 63.16572714 C240.25706921 63.16039921 239.26894863 63.15507129 238.25088501 63.14958191 C236.67177379 63.15871856 236.67177379 63.15871856 235.06076133 63.1680398 C231.52164079 63.18473232 227.98287756 63.17988496 224.44372559 63.1750946 C221.91102726 63.1824313 219.3783323 63.19101636 216.84564209 63.20075989 C210.6731995 63.22071256 204.50088911 63.22635414 198.32841863 63.224572 C193.31139096 63.22326484 188.29439261 63.22706618 183.27737045 63.23449707 C181.83270419 63.23659625 180.38803792 63.23869385 178.94337165 63.24078989 C177.86481927 63.24235518 177.86481927 63.24235518 176.76447795 63.2439521 C163.16232081 63.26285888 149.56021758 63.26180301 135.95805274 63.25498277 C123.51421233 63.24940764 111.07057782 63.27023058 98.62678553 63.30334324 C85.85069197 63.33707635 73.07469705 63.35224901 60.29855812 63.34762621 C53.12525379 63.34538104 45.95213974 63.3506314 38.77887344 63.3755188 C32.03351014 63.39872219 25.28864585 63.39595391 18.54325104 63.37559128 C16.06565139 63.3721714 13.58802315 63.37731209 11.11046219 63.39157486 C7.73163479 63.40968579 4.35427644 63.39707709 0.97549438 63.37663269 C-0.49999431 63.39540946 -0.49999431 63.39540946 -2.00529087 63.41456556 C-6.4729873 63.35649143 -9.54974042 63.20821496 -13.10687447 60.34133148 C-16.21481112 57.00195198 -16.63969492 55.5495842 -16.72253418 51.12528992 C-16.7418248 50.16379028 -16.76111542 49.20229065 -16.7809906 48.21165466 C-16.83869484 43.80741566 -16.8880159 39.40334125 -16.91882324 34.99882507 C-16.94040522 32.67673371 -16.97451001 30.35472373 -17.0213623 28.03300476 C-17.08832608 24.68481619 -17.11581818 21.33831131 -17.1348877 17.98954773 C-17.16271835 16.95497437 -17.19054901 15.920401 -17.21922302 14.85447693 C-17.21644852 13.88036865 -17.21367401 12.90626038 -17.21081543 11.90263367 C-17.22112289 11.05151001 -17.23143036 10.20038635 -17.24205017 9.32347107 C-14.72515586 0.44728812 -7.91121095 -0.11284146 0 0 Z " fill="#57918E" transform="translate(422.5137939453125,640.2448272705078)"/>
<path d="M0 0 C5.01914177 3.81454775 8.93417942 8.22837683 13 13 C14.99786681 15.50680661 14.99786681 15.50680661 17 17 C20.63541819 16.63975028 22.21853394 15.06839898 24.6171875 12.4296875 C25.29990723 11.70072266 25.98262695 10.97175781 26.68603516 10.22070312 C27.40839355 9.44662109 28.13075195 8.67253906 28.875 7.875 C39.78184117 -3.42815512 49.5880734 -8.88675633 65.625 -9.375 C77.6332663 -9.24752371 87.57668036 -4.46909855 96 4 C103.11751395 12.48974651 105.55738243 21.43872527 105.4375 32.375 C105.43427734 33.29240967 105.43105469 34.20981934 105.42773438 35.1550293 C105.28707746 41.99689695 104.21334187 47.87456706 101 54 C100.34 54 99.68 54 99 54 C98.79375 54.680625 98.5875 55.36125 98.375 56.0625 C96.57104973 59.91639375 94.0989655 63.07787764 91 66 C90.34 66 89.68 66 89 66 C88.67 66.99 88.34 67.98 88 69 C87.34 69 86.68 69 86 69 C85.67 69.99 85.34 70.98 85 72 C84.34 72 83.68 72 83 72 C82.67 72.99 82.34 73.98 82 75 C81.34 75 80.68 75 80 75 C79.67 75.99 79.34 76.98 79 78 C78.34 78 77.68 78 77 78 C77 78.66 77 79.32 77 80 C74.68640668 82.51190132 72.34075842 84.73994752 69.625 86.8125 C66.6099555 89.32503708 64.18240743 92.11078219 61.6484375 95.09765625 C60.15373398 96.82258661 58.70811074 98.48534931 57 100 C56.34 100 55.68 100 55 100 C54.773125 100.556875 54.54625 101.11375 54.3125 101.6875 C52.62449964 104.66159588 50.53323483 106.72008865 48 109 C47.34 109 46.68 109 46 109 C45.505 110.485 45.505 110.485 45 112 C44.34 112 43.68 112 43 112 C42.505 113.485 42.505 113.485 42 115 C41.34 115 40.68 115 40 115 C39.7525 115.61875 39.505 116.2375 39.25 116.875 C37.76259631 119.40358627 36.56321991 119.71839004 34 121 C33.72671875 121.57234375 33.4534375 122.1446875 33.171875 122.734375 C31.62305554 125.72875928 29.58817682 127.82679857 27.25 130.25 C26.40953125 131.14203125 25.5690625 132.0340625 24.703125 132.953125 C21.39833583 135.45559541 20.06087099 135.45943244 16 135 C13.74813843 133.54815674 13.74813843 133.54815674 11.55224609 131.41894531 C10.68766785 130.5915686 9.8230896 129.76419189 8.93231201 128.91174316 C7.95391018 127.94213438 6.97653016 126.97149378 6 126 C4.89133782 124.91470296 3.7822049 123.82988664 2.67266846 122.7454834 C-1.18860499 118.9542495 -5.01280651 115.12650645 -8.8359375 111.296875 C-10.24681281 109.88667478 -11.65783641 108.47662292 -13.06900024 107.06671143 C-16.00709822 104.13007835 -18.94340359 101.191668 -21.87841797 98.25195312 C-25.63412946 94.49051864 -29.39434897 90.73362769 -33.15590477 86.97803879 C-36.06250972 84.07504973 -38.96672594 81.16968035 -41.87022781 78.26358795 C-43.25613722 76.87701349 -44.64278425 75.49117588 -46.03019333 74.10610199 C-47.96575908 72.17308254 -49.89807936 70.23687513 -51.82958984 68.29980469 C-52.39794556 67.73347321 -52.96630127 67.16714172 -53.55187988 66.58364868 C-57.99730957 62.11454746 -61.86856676 57.69122168 -64.6875 52 C-65.10386719 51.175 -65.52023437 50.35 -65.94921875 49.5 C-68.25216767 44.02086502 -68.21333524 38.6071948 -68.25 32.75 C-68.270625 31.94175781 -68.29125 31.13351562 -68.3125 30.30078125 C-68.3828675 19.30585985 -64.04324798 9.81295713 -56.75 1.69921875 C-40.98523077 -13.60809066 -16.79943702 -12.49597593 0 0 Z " fill="#CFF3E2" transform="translate(522,284)"/>
<path d="M0 0 C3.16825671 2.8629897 6.21318529 5.83453228 9.21484375 8.87109375 C10.20484375 8.54109375 11.19484375 8.21109375 12.21484375 7.87109375 C12.54484375 7.21109375 12.87484375 6.55109375 13.21484375 5.87109375 C13.87484375 5.87109375 14.53484375 5.87109375 15.21484375 5.87109375 C15.70984375 4.38609375 15.70984375 4.38609375 16.21484375 2.87109375 C29.86996221 -9.70103255 45.01014726 -12.82022384 63.21484375 -12.12890625 C76.94313511 -11.09730054 89.19990508 -3.13738759 98.21484375 6.87109375 C108.89469503 20.76469844 110.92274497 36.66446086 108.87109375 53.73046875 C108.42394993 55.8320447 107.88314036 57.82975139 107.21484375 59.87109375 C106.81845703 61.1240625 106.81845703 61.1240625 106.4140625 62.40234375 C105.70840235 64.5694896 104.9765341 66.72312695 104.21484375 68.87109375 C103.55484375 68.87109375 102.89484375 68.87109375 102.21484375 68.87109375 C101.84359375 69.95390625 101.84359375 69.95390625 101.46484375 71.05859375 C100.09214783 74.14715957 98.49131079 76.38120793 96.21484375 78.87109375 C95.55484375 78.87109375 94.89484375 78.87109375 94.21484375 78.87109375 C93.87453125 79.94423828 93.87453125 79.94423828 93.52734375 81.0390625 C91.93449151 84.47602046 89.91349402 86.53593542 87.21484375 89.18359375 C85.88453125 90.50810547 85.88453125 90.50810547 84.52734375 91.859375 C82.21484375 93.87109375 82.21484375 93.87109375 80.21484375 93.87109375 C79.84359375 94.72960937 79.84359375 94.72960937 79.46484375 95.60546875 C78.02168176 98.22119986 76.33268153 100.01882831 74.21484375 102.12109375 C73.51359375 102.8275 72.81234375 103.53390625 72.08984375 104.26171875 C70.21484375 105.87109375 70.21484375 105.87109375 68.21484375 105.87109375 C67.88484375 106.86109375 67.55484375 107.85109375 67.21484375 108.87109375 C66.55484375 108.87109375 65.89484375 108.87109375 65.21484375 108.87109375 C65.08529297 109.7528125 65.08529297 109.7528125 64.953125 110.65234375 C64.01122108 113.48303914 62.69911114 114.4961816 60.40234375 116.37109375 C58.09221819 118.29275455 55.94057769 120.15257733 53.83984375 122.30859375 C52.21484375 123.87109375 52.21484375 123.87109375 50.21484375 123.87109375 C49.97765625 124.433125 49.74046875 124.99515625 49.49609375 125.57421875 C47.92536678 128.39003417 46.00012911 130.35064791 43.71484375 132.62109375 C42.52375 133.81992187 42.52375 133.81992187 41.30859375 135.04296875 C39.21484375 136.87109375 39.21484375 136.87109375 37.21484375 136.87109375 C36.88484375 137.86109375 36.55484375 138.85109375 36.21484375 139.87109375 C35.55484375 139.87109375 34.89484375 139.87109375 34.21484375 139.87109375 C33.96734375 140.48984375 33.71984375 141.10859375 33.46484375 141.74609375 C31.97744006 144.27468002 30.77806366 144.58948379 28.21484375 145.87109375 C27.92609375 146.47566406 27.63734375 147.08023438 27.33984375 147.703125 C25.99850393 150.2879986 24.42978378 151.68159494 22.21484375 153.55859375 C21.51359375 154.16058594 20.81234375 154.76257813 20.08984375 155.3828125 C16.75475651 158.030038 14.31154425 158.14697413 10.08984375 158.30859375 C8.99414062 158.36917969 7.8984375 158.42976562 6.76953125 158.4921875 C-0.96080883 157.1415017 -6.81535888 150.1391106 -12.19165039 144.75512695 C-13.22992226 143.72693092 -13.22992226 143.72693092 -14.28916931 142.67796326 C-16.55482035 140.43116619 -18.81299141 138.17703885 -21.0703125 135.921875 C-22.65622331 134.34240029 -24.24228026 132.76307229 -25.82847595 131.18388367 C-29.14450183 127.87979868 -32.45640281 124.57164086 -35.76586914 121.26098633 C-39.98756691 117.03908543 -44.22285348 112.83111012 -48.46183109 108.62656879 C-51.73999751 105.37073984 -55.00893187 102.10575905 -58.27541924 98.83821678 C-59.83216775 97.28381355 -61.39212607 95.73261755 -62.9554615 94.18483925 C-78.47608331 78.80429244 -78.47608331 78.80429244 -83.78515625 68.87109375 C-84.2020874 68.13310547 -84.61901855 67.39511719 -85.04858398 66.63476562 C-89.38989594 58.81898967 -90.11596042 50.60951412 -90.03515625 41.80859375 C-90.04289062 40.96232422 -90.050625 40.11605469 -90.05859375 39.24414062 C-90.01538287 25.23301367 -84.23676402 12.38880085 -74.53515625 2.30859375 C-71.78515625 -0.12890625 -71.78515625 -0.12890625 -69.78515625 -0.12890625 C-69.78515625 -0.78890625 -69.78515625 -1.44890625 -69.78515625 -2.12890625 C-47.65560425 -14.6660701 -20.83758222 -17.95229571 0 0 Z M-67.92578125 14.1484375 C-75.01991164 22.86706413 -76.96599563 31.07268548 -77.03515625 42.12109375 C-77.05578125 42.92933594 -77.07640625 43.73757813 -77.09765625 44.5703125 C-77.20688128 61.63672266 -66.05019043 72.5676419 -54.76923561 84.0026474 C-51.52602374 87.27020551 -48.26987327 90.52469502 -45.01171875 93.77734375 C-43.5967272 95.19301025 -42.18188402 96.60882505 -40.7671814 98.02478027 C-37.82215585 100.97127043 -34.87535345 103.91596844 -31.92724609 106.859375 C-28.14767326 110.63321438 -24.37265763 114.4115757 -20.59893227 118.19126129 C-17.68744194 121.10635945 -14.7735813 124.01907889 -11.85898972 126.93107605 C-10.4651792 128.32421982 -9.07211023 129.71810591 -7.67979813 131.11274719 C-5.7415756 133.05350383 -3.80018636 134.99103574 -1.85791016 136.92773438 C-0.99762711 137.79105377 -0.99762711 137.79105377 -0.1199646 138.67181396 C4.26330702 143.19238365 4.26330702 143.19238365 10.00390625 145.36328125 C14.58605407 144.66090823 16.52151876 142.3068543 19.58984375 138.99609375 C20.13511719 138.44050781 20.68039062 137.88492188 21.2421875 137.3125 C24.23590596 134.57049008 24.23590596 134.57049008 25.21484375 130.87109375 C26.14296875 130.49984375 26.14296875 130.49984375 27.08984375 130.12109375 C29.60194671 128.64338613 29.97591719 127.43154198 31.21484375 124.87109375 C32.20484375 124.54109375 33.19484375 124.21109375 34.21484375 123.87109375 C34.21484375 123.21109375 34.21484375 122.55109375 34.21484375 121.87109375 C35.20484375 121.54109375 36.19484375 121.21109375 37.21484375 120.87109375 C37.21484375 120.21109375 37.21484375 119.55109375 37.21484375 118.87109375 C37.77171875 118.64421875 38.32859375 118.41734375 38.90234375 118.18359375 C41.87643963 116.49559339 43.9349324 114.40432858 46.21484375 111.87109375 C46.21484375 111.21109375 46.21484375 110.55109375 46.21484375 109.87109375 C46.80394531 109.60941406 47.39304687 109.34773438 48 109.078125 C50.33269809 107.80686625 51.81838743 106.46878844 53.65234375 104.55859375 C54.255625 103.93597656 54.85890625 103.31335938 55.48046875 102.671875 C56.0528125 102.07761719 56.62515625 101.48335938 57.21484375 100.87109375 C58.10171875 100.00484375 58.98859375 99.13859375 59.90234375 98.24609375 C62.27947616 95.88385814 62.27947616 95.88385814 64.40234375 93.12109375 C66.21484375 90.87109375 66.21484375 90.87109375 68.21484375 89.87109375 C68.21484375 89.21109375 68.21484375 88.55109375 68.21484375 87.87109375 C69.20484375 87.54109375 70.19484375 87.21109375 71.21484375 86.87109375 C71.21484375 86.21109375 71.21484375 85.55109375 71.21484375 84.87109375 C72.20484375 84.54109375 73.19484375 84.21109375 74.21484375 83.87109375 C74.21484375 83.21109375 74.21484375 82.55109375 74.21484375 81.87109375 C75.20484375 81.54109375 76.19484375 81.21109375 77.21484375 80.87109375 C77.21484375 80.21109375 77.21484375 79.55109375 77.21484375 78.87109375 C78.20484375 78.54109375 79.19484375 78.21109375 80.21484375 77.87109375 C80.21484375 77.21109375 80.21484375 76.55109375 80.21484375 75.87109375 C80.8078125 75.62359375 81.40078125 75.37609375 82.01171875 75.12109375 C84.54916995 73.68140512 85.75528477 72.21957882 87.46484375 69.87109375 C87.985625 69.16984375 88.50640625 68.46859375 89.04296875 67.74609375 C90.39151006 65.95694254 90.39151006 65.95694254 90.21484375 63.87109375 C90.87484375 63.87109375 91.53484375 63.87109375 92.21484375 63.87109375 C97.73682235 53.34482205 98.31556448 39.36505047 95.33203125 27.90625 C90.9247841 15.3995917 82.65381701 8.56560955 71 2.76953125 C61.9288588 -0.84541142 50.3688955 -0.29208643 41.21484375 2.87109375 C40.36277344 3.14695312 39.51070312 3.4228125 38.6328125 3.70703125 C29.69995973 7.34860461 23.79588918 13.85076817 17.26977539 20.7734375 C16.52848389 21.55589844 15.78719238 22.33835937 15.0234375 23.14453125 C14.36142334 23.86044434 13.69940918 24.57635742 13.01733398 25.31396484 C11.21484375 26.87109375 11.21484375 26.87109375 8.21484375 26.87109375 C5.923002 24.82701868 3.87434539 22.68887578 1.9453125 20.296875 C-5.29911026 11.34051372 -15.06312479 2.6491547 -26.78515625 0.87109375 C-43.14347583 0.00132625 -56.09034781 1.55709134 -67.92578125 14.1484375 Z " fill="#5CA495" transform="translate(530.78515625,274.12890625)"/>
<path d="M0 0 C7.56041755 6.54172493 12.65900452 14.72184489 13.86450195 24.76635742 C13.99904746 27.39361436 14.02883481 29.99454462 14 32.625 C13.99516602 34.0011145 13.99516602 34.0011145 13.99023438 35.4050293 C13.84957746 42.24689695 12.77584187 48.12456706 9.5625 54.25 C8.9025 54.25 8.2425 54.25 7.5625 54.25 C7.35625 54.930625 7.15 55.61125 6.9375 56.3125 C5.13354973 60.16639375 2.6614655 63.32787764 -0.4375 66.25 C-1.0975 66.25 -1.7575 66.25 -2.4375 66.25 C-2.9325 67.735 -2.9325 67.735 -3.4375 69.25 C-4.0975 69.25 -4.7575 69.25 -5.4375 69.25 C-5.9325 70.735 -5.9325 70.735 -6.4375 72.25 C-7.0975 72.25 -7.7575 72.25 -8.4375 72.25 C-8.9325 73.735 -8.9325 73.735 -9.4375 75.25 C-10.0975 75.25 -10.7575 75.25 -11.4375 75.25 C-11.9325 76.735 -11.9325 76.735 -12.4375 78.25 C-13.0975 78.25 -13.7575 78.25 -14.4375 78.25 C-14.4375 78.91 -14.4375 79.57 -14.4375 80.25 C-16.75109332 82.76190132 -19.09674158 84.98994752 -21.8125 87.0625 C-24.8275445 89.57503708 -27.25509257 92.36078219 -29.7890625 95.34765625 C-31.28376602 97.07258661 -32.72938926 98.73534931 -34.4375 100.25 C-35.0975 100.25 -35.7575 100.25 -36.4375 100.25 C-36.664375 100.806875 -36.89125 101.36375 -37.125 101.9375 C-38.81300036 104.91159588 -40.90426517 106.97008865 -43.4375 109.25 C-44.0975 109.25 -44.7575 109.25 -45.4375 109.25 C-45.7675 110.24 -46.0975 111.23 -46.4375 112.25 C-47.0975 112.25 -47.7575 112.25 -48.4375 112.25 C-48.7675 113.24 -49.0975 114.23 -49.4375 115.25 C-50.0975 115.25 -50.7575 115.25 -51.4375 115.25 C-51.685 115.86875 -51.9325 116.4875 -52.1875 117.125 C-53.67490369 119.65358627 -54.87428009 119.96839004 -57.4375 121.25 C-57.73011719 121.84296875 -58.02273438 122.4359375 -58.32421875 123.046875 C-59.63758139 125.64595054 -61.22615698 127.41037241 -63.25 129.5 C-63.91644531 130.20640625 -64.58289063 130.9128125 -65.26953125 131.640625 C-67.4375 133.25 -67.4375 133.25 -72.4375 133.25 C-72.4375 111.8 -72.4375 90.35 -72.4375 68.25 C-68.02505648 70.45622176 -65.8362112 72.92596013 -62.6328125 76.5703125 C-60.49764749 78.45819568 -60.49764749 78.45819568 -57.5390625 78.8359375 C-53.36990238 78.04831279 -51.39479997 75.80227448 -48.6875 72.75 C-46.96949604 70.87539514 -45.23089305 69.05511457 -43.4375 67.25 C-42.7775 67.25 -42.1175 67.25 -41.4375 67.25 C-40.9425 65.765 -40.9425 65.765 -40.4375 64.25 C-38.82369544 62.5320971 -37.14380238 60.87606511 -35.4375 59.25 C-34.29838467 58.14004403 -33.16070065 57.02861794 -32.02416992 55.91601562 C-31.40390427 55.31188843 -30.78363861 54.70776123 -30.14457703 54.08532715 C-27.35924803 51.36697643 -24.58719691 48.63524908 -21.81567383 45.90283203 C-20.35066388 44.46312873 -18.88122196 43.02792197 -17.4074707 41.59716797 C-15.27414648 39.5243619 -13.15727154 37.43593254 -11.04296875 35.34375 C-10.38056686 34.70715454 -9.71816498 34.07055908 -9.03569031 33.41467285 C-5.50145202 30.00628593 -5.50145202 30.00628593 -3.9621582 25.49414062 C-4.42581229 23.09709553 -4.42581229 23.09709553 -5.4375 20.25 C-11.80423495 19.78944158 -11.80423495 19.78944158 -17.4375 22.25 C-17.7675 22.91 -18.0975 23.57 -18.4375 24.25 C-19.69558796 26.76617591 -20.9675397 27.05485792 -23.4375 28.25 C-23.7675 29.24 -24.0975 30.23 -24.4375 31.25 C-25.0975 31.25 -25.7575 31.25 -26.4375 31.25 C-26.69724609 31.83426758 -26.95699219 32.41853516 -27.22460938 33.02050781 C-28.522156 35.40561164 -29.93091122 37.00190637 -31.84375 38.921875 C-32.83568359 39.91767578 -32.83568359 39.91767578 -33.84765625 40.93359375 C-34.53730469 41.61550781 -35.22695313 42.29742187 -35.9375 43 C-36.62714844 43.69738281 -37.31679688 44.39476562 -38.02734375 45.11328125 C-38.68863281 45.77199219 -39.34992187 46.43070312 -40.03125 47.109375 C-40.63646484 47.71233398 -41.24167969 48.31529297 -41.86523438 48.93652344 C-43.4375 50.25 -43.4375 50.25 -45.4375 50.25 C-45.67210937 50.81203125 -45.90671875 51.3740625 -46.1484375 51.953125 C-47.74413 54.79635891 -49.72674543 56.73098127 -52.0625 59 C-52.87976563 59.79921875 -53.69703125 60.5984375 -54.5390625 61.421875 C-55.16554688 62.02515625 -55.79203125 62.6284375 -56.4375 63.25 C-63.20289651 60.16287732 -69.30023978 56.19133887 -72.4375 49.25 C-73.43578128 44.17264885 -73.62902307 39.15974054 -73.625 34 C-73.63756836 32.68483398 -73.65013672 31.36966797 -73.66308594 30.01464844 C-73.4334645 22.66862915 -72.72066899 18.03798285 -67.29858398 12.89208984 C-66.68442627 12.3502002 -66.07026855 11.80831055 -65.4375 11.25 C-64.48677093 10.20736659 -63.54703582 9.15455098 -62.62109375 8.08984375 C-45.72804533 -9.7644023 -20.93491879 -15.6464266 0 0 Z " fill="#EAFBF3" transform="translate(613.4375,283.75)"/>
<path d="M0 0 C6.20035016 0.53916088 11.33358656 2.48065151 17 5 C17.84046875 5.37253906 18.6809375 5.74507813 19.546875 6.12890625 C29.22160646 10.68083736 36.99842031 16.33623353 42 26 C43.25069129 29.71543149 43.08191696 33.28712476 43.02734375 37.1796875 C43.01469534 38.59765379 43.00233454 40.01562267 42.99023438 41.43359375 C42.96546267 43.65421749 42.93750446 45.87470427 42.90405273 48.09521484 C42.87367592 50.24838078 42.85602265 52.40137442 42.83984375 54.5546875 C42.82300537 55.83843262 42.80616699 57.12217773 42.78881836 58.44482422 C42.99973022 61.99545838 43.76135755 64.68689546 45 68 C45.22663986 70.71061275 45.0940868 73.27148292 45 76 C44.01 76.33 43.02 76.66 42 77 C41.01 76.505 41.01 76.505 40 76 C39.4375 73.41796875 39.4375 73.41796875 39 70.1875 C38.47248559 66.320631 37.79306973 63.44418811 36 60 C36 59.01 36 58.02 36 57 C35.12859375 56.8865625 34.2571875 56.773125 33.359375 56.65625 C21.33442623 54.30719024 11.03428685 45.75914744 4 36 C2.76953125 33.2109375 2.76953125 33.2109375 1.8125 30.375 C1.48894531 29.43398438 1.16539062 28.49296875 0.83203125 27.5234375 C0.42017578 26.27433594 0.42017578 26.27433594 0 25 C-0.33 24.01 -0.66 23.02 -1 22 C-1.09232973 20.46959123 -1.13067608 18.93553364 -1.1328125 17.40234375 C-1.13410156 16.51869141 -1.13539063 15.63503906 -1.13671875 14.72460938 C-1.13285156 13.80486328 -1.12898438 12.88511719 -1.125 11.9375 C-1.12886719 11.01388672 -1.13273437 10.09027344 -1.13671875 9.13867188 C-1.13542969 8.25630859 -1.13414062 7.37394531 -1.1328125 6.46484375 C-1.13168457 5.656521 -1.13055664 4.84819824 -1.12939453 4.01538086 C-1 2 -1 2 0 0 Z " fill="#5BA392" transform="translate(474,295)"/>
<path d="M0 0 C3.61546049 0.69232222 4.82975302 1.56301391 6.9375 4.5625 C7.45410156 6.76367188 7.45410156 6.76367188 6.9375 9.5625 C4.99623367 12.20109886 2.65942504 14.3964444 0.296875 16.65625 C-0.72101105 17.65996643 -0.72101105 17.65996643 -1.75946045 18.68395996 C-3.93233004 20.82222873 -6.12158415 22.94273963 -8.3125 25.0625 C-10.48564463 27.18556551 -12.6552558 29.3121487 -14.82269287 31.44104004 C-16.17202338 32.76412549 -17.52525033 34.08325226 -18.88287354 35.39782715 C-22.20224633 38.63044079 -25.22839474 41.88338999 -28.0625 45.5625 C-29.28084517 46.70149916 -30.53079724 47.80779708 -31.8125 48.875 C-35.53052014 52.01251142 -38.78689203 55.41605064 -42.0078125 59.05859375 C-44.89940137 61.17506089 -46.53025297 60.99844103 -50.0625 60.5625 C-52.83911133 58.53051758 -52.83911133 58.53051758 -55.64453125 55.70703125 C-56.14417892 55.20838058 -56.6438266 54.70972992 -57.15861511 54.19596863 C-58.20860845 53.14130715 -59.25125251 52.07928387 -60.28686523 51.01049805 C-61.87005001 49.38009761 -63.47823451 47.7780164 -65.09179688 46.17773438 C-73.86929695 37.30416962 -73.86929695 37.30416962 -74.0625 32.5625 C-72.5 29.75 -72.5 29.75 -70.0625 27.5625 C-67.43359375 26.92578125 -67.43359375 26.92578125 -64.0625 27.5625 C-60.95176412 29.92586371 -58.34944883 32.71281879 -55.6875 35.5625 C-54.95144531 36.325625 -54.21539063 37.08875 -53.45703125 37.875 C-51.64460152 39.75804387 -49.84763318 41.65361959 -48.0625 43.5625 C-44.78974339 42.01188843 -42.65077146 40.36579895 -40.125 37.75 C-39.47660156 37.08355469 -38.82820312 36.41710937 -38.16015625 35.73046875 C-37.46792969 35.01503906 -36.77570312 34.29960937 -36.0625 33.5625 C-33.27192923 30.75778782 -30.46471257 27.97030997 -27.65234375 25.1875 C-26.4348565 23.97920629 -25.21740926 22.77087228 -24 21.5625 C-23.38833984 20.95921875 -22.77667969 20.3559375 -22.14648438 19.734375 C-18.88164197 16.4871804 -15.91153943 13.18855018 -13.0625 9.5625 C-11.41247172 8.20863064 -9.7450613 6.87571858 -8.0625 5.5625 C-7.258125 4.655 -6.45375 3.7475 -5.625 2.8125 C-3.0625 0.5625 -3.0625 0.5625 0 0 Z " fill="#5FA597" transform="translate(603.0625,302.4375)"/>
<path d="M0 0 C3.3 0 6.6 0 10 0 C11 6 12 12 13 18 C13.27714844 16.78441406 13.55429687 15.56882813 13.83984375 14.31640625 C14.20553898 12.73172693 14.57143475 11.14709388 14.9375 9.5625 C15.21110352 8.35883789 15.21110352 8.35883789 15.49023438 7.13085938 C16.88671875 1.11328125 16.88671875 1.11328125 18 0 C20.33297433 -0.04092937 22.66705225 -0.04241723 25 0 C27.08135307 5.29798964 28.71291613 10.45563871 30 16 C30.99 10.72 31.98 5.44 33 0 C36.63 0 40.26 0 44 0 C43.1933124 4.68341721 42.37523274 9.36464279 41.54638672 14.04418945 C41.2658751 15.63738494 40.98852092 17.23113963 40.71435547 18.82543945 C40.32040997 21.11302551 39.9152641 23.39837988 39.5078125 25.68359375 C39.32643234 26.7586039 39.32643234 26.7586039 39.14138794 27.85533142 C38.8275079 29.58364772 38.42201323 31.2948599 38 33 C35.52224905 34.23887548 33.76346293 34.16741669 31 34.1875 C30.113125 34.20167969 29.22625 34.21585938 28.3125 34.23046875 C26 34 26 34 24 32 C23.3671875 29.6171875 23.3671875 29.6171875 22.875 26.875 C22.70742188 25.96492188 22.53984375 25.05484375 22.3671875 24.1171875 C22.24601562 23.41851562 22.12484375 22.71984375 22 22 C20.60158738 24.69954436 19.42139597 27.39619281 18.375 30.25 C17.92125 31.4875 17.4675 32.725 17 34 C15.20906809 34.08086147 13.41710372 34.13912702 11.625 34.1875 C10.12839844 34.23970703 10.12839844 34.23970703 8.6015625 34.29296875 C7.74304688 34.19628906 6.88453125 34.09960938 6 34 C3.89938034 30.84907052 3.51146845 29.12816279 2.9296875 25.44921875 C2.75566406 24.35802734 2.58164062 23.26683594 2.40234375 22.14257812 C2.14130859 20.43231445 2.14130859 20.43231445 1.875 18.6875 C1.69324219 17.55892578 1.51148438 16.43035156 1.32421875 15.26757812 C0.5170232 10.11184416 -0.10007816 5.22981283 0 0 Z " fill="#F9FCFC" transform="translate(400,186)"/>
<path d="M0 0 C3.96 0 7.92 0 12 0 C16.875 10.625 16.875 10.625 18 14 C18.29003906 13.11248047 18.29003906 13.11248047 18.5859375 12.20703125 C18.84632813 11.41683594 19.10671875 10.62664062 19.375 9.8125 C19.63023437 9.03519531 19.88546875 8.25789062 20.1484375 7.45703125 C21.02206922 4.93632321 21.99120398 2.46935722 23 0 C25.14576637 -0.02685938 27.29162645 -0.04633088 29.4375 -0.0625 C30.63246094 -0.07410156 31.82742188 -0.08570313 33.05859375 -0.09765625 C36 0 36 0 37 1 C37.17210926 3.3616582 37.28368198 5.69718602 37.3515625 8.0625 C37.37471527 8.76898682 37.39786804 9.47547363 37.42172241 10.20336914 C37.46941529 11.69963262 37.51464281 13.19597638 37.55761719 14.69238281 C37.62472363 16.99053548 37.70245777 19.28815923 37.78125 21.5859375 C37.82616267 23.0364386 37.87045447 24.48695909 37.9140625 25.9375 C37.93796051 26.6291626 37.96185852 27.3208252 37.98648071 28.03344727 C38.03028098 29.68839146 38.02050604 31.34460329 38 33 C37 34 37 34 35.1875 34.1328125 C34.465625 34.13023437 33.74375 34.12765625 33 34.125 C32.278125 34.12757813 31.55625 34.13015625 30.8125 34.1328125 C29 34 29 34 28 33 C27.84417697 31.65984779 27.74955858 30.31241097 27.68359375 28.96484375 C27.64169922 28.15595703 27.59980469 27.34707031 27.55664062 26.51367188 C27.51732422 25.66353516 27.47800781 24.81339844 27.4375 23.9375 C27.39431641 23.08349609 27.35113281 22.22949219 27.30664062 21.34960938 C27.20023298 19.23327963 27.09958269 17.11666187 27 15 C26.65066406 16.21558594 26.30132813 17.43117187 25.94140625 18.68359375 C25.4819414 20.26827863 25.0222967 21.85291137 24.5625 23.4375 C24.33240234 24.23994141 24.10230469 25.04238281 23.86523438 25.86914062 C22.11328125 31.88671875 22.11328125 31.88671875 21 33 C19.00041636 33.04080783 16.99954746 33.04254356 15 33 C14.36803616 31.50292061 13.74485607 30.00213297 13.125 28.5 C12.60292969 27.24703125 12.60292969 27.24703125 12.0703125 25.96875 C10.7668644 22.35334651 9.88685283 18.73916329 9 15 C8.93941406 16.28777344 8.87882813 17.57554687 8.81640625 18.90234375 C8.73201753 20.58074159 8.6473687 22.25912636 8.5625 23.9375 C8.52318359 24.78763672 8.48386719 25.63777344 8.44335938 26.51367188 C8.40146484 27.32255859 8.35957031 28.13144531 8.31640625 28.96484375 C8.26141968 30.08814087 8.26141968 30.08814087 8.20532227 31.23413086 C8 33 8 33 7 34 C3.5 34.125 3.5 34.125 0 34 C-1.81268688 32.18731312 -1.13039163 29.39128747 -1.1328125 26.953125 C-1.13410156 25.715625 -1.13539063 24.478125 -1.13671875 23.203125 C-1.13285156 21.89859375 -1.12898437 20.5940625 -1.125 19.25 C-1.12886719 17.9609375 -1.13273438 16.671875 -1.13671875 15.34375 C-1.13478516 13.47976562 -1.13478516 13.47976562 -1.1328125 11.578125 C-1.13168457 10.43762695 -1.13055664 9.29712891 -1.12939453 8.12207031 C-1 5 -1 5 0 0 Z " fill="#F9FCFD" transform="translate(554,186)"/>
<path d="M0 0 C3.95258886 2.08119328 6.24008051 4.21026151 8.02734375 8.28125 C10.16618594 15.47553737 9.5778423 22.69164158 6.02734375 29.28125 C2.54821867 33.20451871 -0.62472568 34.17254592 -5.84765625 34.59375 C-10.09088707 34.45764637 -13.26224346 33.42187276 -16.97265625 31.28125 C-22.07837124 24.83192581 -22.59089256 19.26107786 -21.97265625 11.28125 C-20.20957629 5.99201013 -17.36110513 3.48116064 -12.97265625 0.28125 C-8.60262175 -1.17542817 -4.35995829 -1.58857886 0 0 Z " fill="#FAFDFD" transform="translate(539.97265625,185.71875)"/>
<path d="M0 0 C3.98561154 2.62688033 6.23980531 5.28191592 7.75 9.8125 C7.92241708 12.24612472 8.01665768 14.68570596 8.0625 17.125 C8.09988281 18.42050781 8.13726563 19.71601563 8.17578125 21.05078125 C7.68319186 25.40274069 6.51917153 27.46269573 3.75 30.8125 C-1.41552756 33.85104562 -6.37167674 34.76719119 -12.25 33.8125 C-17.09037606 31.43797589 -20.04259516 28.7367108 -22.25 23.8125 C-23.02956227 16.43731535 -23.15216281 10.29738927 -19.25 3.8125 C-13.48694118 -1.51832941 -7.3462207 -2.68419603 0 0 Z " fill="#F9FCFC" transform="translate(675.25,186.1875)"/>
<path d="M0 0 C0.69029297 -0.01546875 1.38058594 -0.0309375 2.09179688 -0.046875 C7.2159417 -0.00801893 10.1036569 1.33410903 14.0625 4.5 C16.38933731 6.90439855 17.02094396 7.89051145 17.25 11.25 C17.1571875 12.36375 17.1571875 12.36375 17.0625 13.5 C13.8125 13.8125 13.8125 13.8125 10.0625 13.5 C9.464375 12.675 8.86625 11.85 8.25 11 C6.25095273 8.17236368 6.25095273 8.17236368 2.828125 8.01171875 C1.66796875 8.06972656 0.5078125 8.12773437 -0.6875 8.1875 C-1.85796875 8.23261719 -3.0284375 8.27773438 -4.234375 8.32421875 C-5.57242188 8.41123047 -5.57242188 8.41123047 -6.9375 8.5 C-7.2675 11.47 -7.5975 14.44 -7.9375 17.5 C-4.9456907 18.50617396 -1.95260815 19.49531805 1.0625 20.4296875 C13.41388317 24.3216598 13.41388317 24.3216598 17.9375 29.75 C19.43086312 33.40044318 19.73560837 36.65042517 19.0625 40.5 C16.6266976 45.37160481 13.78994992 47.87731217 9.0625 50.5 C6.22611043 50.88885986 3.87687126 51.06348206 1.0625 51 C0.37671875 51.01546875 -0.3090625 51.0309375 -1.015625 51.046875 C-7.00622116 51.00114526 -10.59656517 48.84093483 -14.75 44.6875 C-16.37192058 41.69975157 -16.61493221 38.85470499 -16.9375 35.5 C-13.625 35.1875 -13.625 35.1875 -9.9375 35.5 C-7.98171883 37.89740918 -6.9375 39.37586608 -6.9375 42.5 C0.82206448 43.8616793 0.82206448 43.8616793 8.0625 41.5 C10.21012184 38.27856724 10.623568 37.2404533 10.0625 33.5 C7.74857884 30.78365777 5.30254407 30.27418549 1.9375 29.625 C-4.61187322 28.30211336 -10.99869409 26.12309035 -15.0625 20.625 C-16.43785657 15.71301224 -16.54098736 12.11988712 -14.75 7.3125 C-10.85961904 1.27570197 -6.99771934 -0.15593804 0 0 Z " fill="#5AA195" transform="translate(543.9375,452.5)"/>
<path d="M0 0 C4.51846921 3.04505534 8.13526194 6.71828583 9.875 11.9375 C9.875 14.5775 9.875 17.2175 9.875 19.9375 C0.965 19.9375 -7.945 19.9375 -17.125 19.9375 C-14.60947675 25.72764432 -14.60947675 25.72764432 -10.125 28.9375 C-6.66730809 29.52092353 -6.66730809 29.52092353 -3.125 28.9375 C-2.3 28.2775 -1.475 27.6175 -0.625 26.9375 C2.65129128 24.31646697 4.7906949 24.61716234 8.875 24.9375 C7.91116795 29.54247533 6.27783772 32.40452596 2.2734375 35.0234375 C-2.91225136 36.99974237 -8.69964596 36.70705376 -14.125 35.9375 C-18.18771929 33.92890069 -20.56448002 31.68683282 -23.125 27.9375 C-24.2295119 24.63118333 -24.29062255 21.46976309 -24.3125 18 C-24.32667969 16.98035156 -24.34085937 15.96070313 -24.35546875 14.91015625 C-24.01134834 10.47158627 -22.57593244 7.61389866 -20.125 3.9375 C-19.465 3.9375 -18.805 3.9375 -18.125 3.9375 C-18.125 3.2775 -18.125 2.6175 -18.125 1.9375 C-11.80752721 -1.2212364 -6.94934355 -2.36277681 0 0 Z " fill="#5BA195" transform="translate(512.125,467.0625)"/>
<path d="M0 0 C4.87104898 1.8668013 7.35633339 3.70826815 9.71484375 8.44140625 C11.56716949 13.86009467 11.36393803 19.27264349 11.25 24.9375 C11.24484375 25.99001953 11.2396875 27.04253906 11.234375 28.12695312 C11.15464979 35.84535021 11.15464979 35.84535021 10 37 C7.66702567 37.04092937 5.33294775 37.04241723 3 37 C2.98018066 36.3294458 2.96036133 35.6588916 2.93994141 34.96801758 C2.84440285 31.91579839 2.73484055 28.86423659 2.625 25.8125 C2.5940625 24.75740234 2.563125 23.70230469 2.53125 22.61523438 C2.49257813 21.59365234 2.45390625 20.57207031 2.4140625 19.51953125 C2.36693115 18.11344604 2.36693115 18.11344604 2.31884766 16.67895508 C1.94570815 13.54384034 1.3047045 10.3047045 -1 8 C-3.03270562 7.76179079 -3.03270562 7.76179079 -5.375 7.75 C-6.16648437 7.72421875 -6.95796875 7.6984375 -7.7734375 7.671875 C-10.61430917 8.09052977 -11.28357759 8.7161503 -13 11 C-13.5060736 13.8028729 -13.5060736 13.8028729 -13.51171875 16.98046875 C-13.54716797 18.14384766 -13.58261719 19.30722656 -13.61914062 20.50585938 C-13.65297852 22.32827148 -13.65297852 22.32827148 -13.6875 24.1875 C-13.72166016 25.41404297 -13.75582031 26.64058594 -13.79101562 27.90429688 C-13.8735941 30.93610678 -13.94271369 33.96762379 -14 37 C-16.64 37 -19.28 37 -22 37 C-22 25.12 -22 13.24 -22 1 C-15 1 -15 1 -12 2 C-11.443125 1.690625 -10.88625 1.38125 -10.3125 1.0625 C-6.85403102 -0.52652629 -3.68705039 -0.63339925 0 0 Z " fill="#5BA296" transform="translate(626,466)"/>
<path d="M0 0 C2.64 0 5.28 0 8 0 C9.50827797 3.76757497 11.00518994 7.53956349 12.5 11.3125 C12.92925781 12.38435547 13.35851562 13.45621094 13.80078125 14.56054688 C14.20683594 15.58857422 14.61289062 16.61660156 15.03125 17.67578125 C15.40830078 18.62364502 15.78535156 19.57150879 16.17382812 20.5480957 C17 23 17 23 17 26 C17.66 26 18.32 26 19 26 C19.13921875 24.81857422 19.13921875 24.81857422 19.28125 23.61328125 C20.21202174 18.93412982 21.82021104 14.64332575 23.5 10.1875 C23.82097656 9.31673828 24.14195312 8.44597656 24.47265625 7.54882812 C26.86056871 1.13943129 26.86056871 1.13943129 28 0 C30.33297433 -0.04092937 32.66705225 -0.04241723 35 0 C33.36407588 9.49547263 29.34276438 18.52833033 25.2578125 27.19921875 C23.36832934 31.40654617 21.79598582 35.72505887 20.2109375 40.0546875 C18.45828587 44.31758855 17.10882567 47.28542346 13.1875 49.8125 C9.87353477 51.0471145 7.50302515 51.25021608 4 51 C4 49.02 4 47.04 4 45 C5.670625 44.4121875 5.670625 44.4121875 7.375 43.8125 C9.91745343 42.69340792 10.87925716 42.16421027 12.5625 39.875 C13.64991322 32.72914173 10.43914822 26.37735907 7.44140625 20.05078125 C5.79218206 16.56014685 4.22601 13.04049842 2.6875 9.5 C2.17574219 8.3346875 1.66398438 7.169375 1.13671875 5.96875 C0 3 0 3 0 0 Z " fill="#5AA195" transform="translate(565,467)"/>
<path d="M0 0 C2.97 0 5.94 0 9 0 C9 14.19 9 28.38 9 43 C16.59 43 24.18 43 32 43 C32 45.31 32 47.62 32 50 C27.60343827 50.02465504 23.2069128 50.04283842 18.81030273 50.05493164 C17.31355082 50.05997121 15.81680384 50.06680287 14.32006836 50.07543945 C12.17300193 50.08752159 10.02600038 50.09323191 7.87890625 50.09765625 C5.93866577 50.10551147 5.93866577 50.10551147 3.95922852 50.11352539 C1 50 1 50 0 49 C-0.09319449 47.4651703 -0.117458 45.92607918 -0.11352539 44.38842773 C-0.11344986 43.40748642 -0.11337433 42.4265451 -0.11329651 41.4158783 C-0.10813522 40.3492244 -0.10297394 39.2825705 -0.09765625 38.18359375 C-0.0962413 37.0974025 -0.09482635 36.01121124 -0.09336853 34.8921051 C-0.08775048 31.40720925 -0.07519492 27.92237658 -0.0625 24.4375 C-0.05748733 22.08138113 -0.05292402 19.72526126 -0.04882812 17.36914062 C-0.03777518 11.57940257 -0.02049846 5.78971201 0 0 Z " fill="#59A195" transform="translate(411,453)"/>
<path d="M0 0 C3.85511842 2.47650811 6.75151867 4.40196737 8.4140625 8.80078125 C8.4140625 9.79078125 8.4140625 10.78078125 8.4140625 11.80078125 C5.1640625 12.11328125 5.1640625 12.11328125 1.4140625 11.80078125 C0.4859375 10.56328125 0.4859375 10.56328125 -0.4609375 9.30078125 C-2.28457492 6.6610647 -2.28457492 6.6610647 -4.65234375 6.29296875 C-8.71545526 6.09215599 -11.07864243 6.51089835 -14.6484375 8.55078125 C-17.60195253 13.50506452 -17.67934508 18.18640476 -16.5859375 23.80078125 C-14.85081349 26.66699292 -13.70065332 27.18574342 -10.5859375 28.80078125 C-7.5859375 29.63411458 -7.5859375 29.63411458 -4.5859375 28.80078125 C-3.6165625 27.97578125 -2.6471875 27.15078125 -1.6484375 26.30078125 C2.02065623 23.3056027 3.80454001 23.339829 8.4140625 23.80078125 C6.93713942 29.46231971 6.93713942 29.46231971 4.2890625 31.17578125 C3.6703125 31.38203125 3.0515625 31.58828125 2.4140625 31.80078125 C2.4140625 32.46078125 2.4140625 33.12078125 2.4140625 33.80078125 C1.4240625 33.80078125 0.4340625 33.80078125 -0.5859375 33.80078125 C-0.5859375 34.46078125 -0.5859375 35.12078125 -0.5859375 35.80078125 C-14.54888212 36.48936482 -14.54888212 36.48936482 -18.2734375 34.05078125 C-23.26466426 29.19445251 -25.20711789 25.04780651 -26.0234375 18.05078125 C-25.84839994 11.5493861 -22.5268253 5.69545743 -17.9609375 1.23828125 C-12.4739319 -2.08280109 -5.8665237 -2.72057821 0 0 Z " fill="#5BA295" transform="translate(666.5859375,467.19921875)"/>
<path d="M0 0 C6.6 0 13.2 0 20 0 C20 2.64 20 5.28 20 8 C16.7 8 13.4 8 10 8 C10 9.65 10 11.3 10 13 C12.31 13 14.62 13 17 13 C17 15.31 17 17.62 17 20 C14.69 20 12.38 20 10 20 C10 21.65 10 23.3 10 25 C10.63808594 24.98839844 11.27617188 24.97679687 11.93359375 24.96484375 C12.75988281 24.95582031 13.58617187 24.94679687 14.4375 24.9375 C15.26121094 24.92589844 16.08492187 24.91429687 16.93359375 24.90234375 C19 25 19 25 20 26 C20.125 29.5 20.125 29.5 20 33 C18.4779041 34.5220959 17.11789918 34.12959521 15 34.1328125 C14.195625 34.13410156 13.39125 34.13539063 12.5625 34.13671875 C11.716875 34.13285156 10.87125 34.12898438 10 34.125 C9.154375 34.12886719 8.30875 34.13273437 7.4375 34.13671875 C6.633125 34.13542969 5.82875 34.13414062 5 34.1328125 C4.2575 34.13168457 3.515 34.13055664 2.75 34.12939453 C1 34 1 34 0 33 C-0.08843793 30.55169574 -0.11528752 28.13179401 -0.09765625 25.68359375 C-0.0962413 24.95253922 -0.09482635 24.22148468 -0.09336853 23.46827698 C-0.08775408 21.12464368 -0.07519922 18.78110461 -0.0625 16.4375 C-0.05748686 14.85221492 -0.05292363 13.26692834 -0.04882812 11.68164062 C-0.03862921 7.78769457 -0.01905687 3.89395323 0 0 Z " fill="#F7FBFC" transform="translate(596,186)"/>
<path d="M0 0 C6.27 0 12.54 0 19 0 C19 2.64 19 5.28 19 8 C16.03 8 13.06 8 10 8 C10 9.65 10 11.3 10 13 C10.969375 12.979375 11.93875 12.95875 12.9375 12.9375 C16 13 16 13 17 14 C17.125 16.5 17.125 16.5 17 19 C16 20 16 20 12.4375 20.0625 C11.303125 20.041875 10.16875 20.02125 9 20 C9 21.65 9 23.3 9 25 C9.71027344 24.98839844 10.42054688 24.97679687 11.15234375 24.96484375 C12.07144531 24.95582031 12.99054688 24.94679687 13.9375 24.9375 C14.85402344 24.92589844 15.77054687 24.91429687 16.71484375 24.90234375 C19 25 19 25 20 26 C20.125 29.5 20.125 29.5 20 33 C18.4779041 34.5220959 17.11789918 34.12959521 15 34.1328125 C14.195625 34.13410156 13.39125 34.13539063 12.5625 34.13671875 C11.716875 34.13285156 10.87125 34.12898438 10 34.125 C9.154375 34.12886719 8.30875 34.13273437 7.4375 34.13671875 C6.633125 34.13542969 5.82875 34.13414062 5 34.1328125 C4.2575 34.13168457 3.515 34.13055664 2.75 34.12939453 C1 34 1 34 0 33 C-0.08843793 30.55169574 -0.11528752 28.13179401 -0.09765625 25.68359375 C-0.0962413 24.95253922 -0.09482635 24.22148468 -0.09336853 23.46827698 C-0.08775408 21.12464368 -0.07519922 18.78110461 -0.0625 16.4375 C-0.05748686 14.85221492 -0.05292363 13.26692834 -0.04882812 11.68164062 C-0.03862921 7.78769457 -0.01905687 3.89395323 0 0 Z " fill="#F7FBFC" transform="translate(447,186)"/>
<path d="M0 0 C3 1.5 3 1.5 5 3 C4.34 5.31 3.68 7.62 3 10 C2.37351562 10.03738281 1.74703125 10.07476562 1.1015625 10.11328125 C0.28429687 10.17902344 -0.53296875 10.24476563 -1.375 10.3125 C-2.59316406 10.39951172 -2.59316406 10.39951172 -3.8359375 10.48828125 C-6.37921338 10.82990528 -6.37921338 10.82990528 -8 14 C-8.38464895 19.33468429 -8.38464895 19.33468429 -6 24 C-3.86744896 24.46885852 -3.86744896 24.46885852 -1.5 24.5 C0.90625 24.59375 0.90625 24.59375 3 25 C5.1519437 28.22791555 5.20086443 29.28400809 5 33 C0.43141013 35.35798187 -3.97061346 35.70198151 -9 35 C-13.27407172 32.98392844 -16.11990508 30.44690775 -18.3046875 26.1875 C-19.97157443 20.94336133 -20.01493886 15.03938909 -18.26953125 9.8125 C-14.24555878 2.19158888 -8.37875483 -0.96123382 0 0 Z " fill="#F8FCFC" transform="translate(510,185)"/>
<path d="M0 0 C0.89203125 0.01804687 1.7840625 0.03609375 2.703125 0.0546875 C3.71632813 0.08949219 3.71632813 0.08949219 4.75 0.125 C4.75 2.105 4.75 4.085 4.75 6.125 C0.295 6.62 0.295 6.62 -4.25 7.125 C-4.58 10.095 -4.91 13.065 -5.25 16.125 C-1.95 16.125 1.35 16.125 4.75 16.125 C4.75 18.105 4.75 20.085 4.75 22.125 C1.45 22.125 -1.85 22.125 -5.25 22.125 C-5.25 32.025 -5.25 41.925 -5.25 52.125 C-7.56 52.125 -9.87 52.125 -12.25 52.125 C-12.25 42.225 -12.25 32.325 -12.25 22.125 C-14.23 22.125 -16.21 22.125 -18.25 22.125 C-18.25 20.145 -18.25 18.165 -18.25 16.125 C-16.27 16.125 -14.29 16.125 -12.25 16.125 C-12.28480469 15.53332031 -12.31960938 14.94164062 -12.35546875 14.33203125 C-12.52323815 9.43476248 -12.56859893 6.03620588 -9.25 2.125 C-6.09268508 0.1378303 -3.69481094 -0.09723187 0 0 Z " fill="#5AA094" transform="translate(481.25,450.875)"/>
<path d="M0 0 C0.98484375 -0.00128906 1.9696875 -0.00257813 2.984375 -0.00390625 C4.02078125 -0.00003906 5.0571875 0.00382813 6.125 0.0078125 C7.67960938 0.00201172 7.67960938 0.00201172 9.265625 -0.00390625 C10.25046875 -0.00261719 11.2353125 -0.00132812 12.25 0 C13.16007813 0.00112793 14.07015625 0.00225586 15.0078125 0.00341797 C17.125 0.1328125 17.125 0.1328125 18.125 1.1328125 C18.25 4.1328125 18.25 4.1328125 18.125 7.1328125 C17.795 7.4628125 17.465 7.7928125 17.125 8.1328125 C15.145 8.1328125 13.165 8.1328125 11.125 8.1328125 C11.125 16.7128125 11.125 25.2928125 11.125 34.1328125 C8.155 34.1328125 5.185 34.1328125 2.125 34.1328125 C1.125 33.1328125 1.125 33.1328125 1.01147461 30.72436523 C1.01671143 29.68223877 1.02194824 28.6401123 1.02734375 27.56640625 C1.03056641 26.44169922 1.03378906 25.31699219 1.03710938 24.15820312 C1.04548828 22.97419922 1.05386719 21.79019531 1.0625 20.5703125 C1.06701172 19.38244141 1.07152344 18.19457031 1.07617188 16.97070312 C1.08800325 14.02469024 1.10448713 11.07877569 1.125 8.1328125 C-0.3290625 8.16375 -0.3290625 8.16375 -1.8125 8.1953125 C-4.875 8.1328125 -4.875 8.1328125 -5.875 7.1328125 C-6 4.1328125 -6 4.1328125 -5.875 1.1328125 C-4.22105883 -0.52112867 -2.27184587 0.00281567 0 0 Z " fill="#F8FCFC" transform="translate(632.875,185.8671875)"/>
<path d="M0 0 C3.3 0 6.6 0 10 0 C10 7.92 10 15.84 10 24 C12.64 24 15.28 24 18 24 C19 25 19 25 19.1328125 26.8125 C19.13023437 27.534375 19.12765625 28.25625 19.125 29 C19.12886719 30.0828125 19.12886719 30.0828125 19.1328125 31.1875 C19 33 19 33 18 34 C15.33997189 34.15317991 12.7237812 34.23159875 10.0625 34.25 C9.32064453 34.270625 8.57878906 34.29125 7.81445312 34.3125 C5.66015625 34.328125 5.66015625 34.328125 2 34 C-0.48360441 30.27459338 -0.2315867 28.36937027 -0.1953125 23.92578125 C-0.1924826 23.2419487 -0.18965271 22.55811615 -0.18673706 21.8535614 C-0.17555684 19.67302835 -0.15045691 17.49290855 -0.125 15.3125 C-0.11496738 13.83268823 -0.10584202 12.35287001 -0.09765625 10.87304688 C-0.07562481 7.248564 -0.04111002 3.62432234 0 0 Z " fill="#F6FBFB" transform="translate(470,186)"/>
<path d="M0 0 C1.98 0 3.96 0 6 0 C7 1 7 1 7.11352539 4.32641602 C7.11336629 5.80225556 7.10767314 7.27810069 7.09765625 8.75390625 C7.0962413 9.52935287 7.09482635 10.3047995 7.09336853 11.10374451 C7.08775345 13.59003494 7.07519846 16.0762366 7.0625 18.5625 C7.05748694 20.24413933 7.0529237 21.92578006 7.04882812 23.60742188 C7.03777913 27.73831566 7.02050445 31.86914276 7 36 C4.69 36 2.38 36 0 36 C0 24.12 0 12.24 0 0 Z " fill="#59A193" transform="translate(450,467)"/>
<path d="M0 0 C2.95887459 -0.08069658 5.9155659 -0.14034665 8.875 -0.1875 C9.71675781 -0.21263672 10.55851562 -0.23777344 11.42578125 -0.26367188 C12.23144531 -0.27333984 13.03710938 -0.28300781 13.8671875 -0.29296875 C14.98262939 -0.31653442 14.98262939 -0.31653442 16.12060547 -0.34057617 C17.05090576 -0.17199097 17.05090576 -0.17199097 18 0 C20.20914 3.31371 20.22481553 4.3446021 20.125 8.1875 C20.10695313 9.08855469 20.08890625 9.98960937 20.0703125 10.91796875 C20.04710937 11.60503906 20.02390625 12.29210937 20 13 C18.35 13.33 16.7 13.66 15 14 C15 10.7 15 7.4 15 4 C14.34 4 13.68 4 13 4 C13 7.3 13 10.6 13 14 C11.35 14 9.7 14 8 14 C8 10.7 8 7.4 8 4 C7.34 4 6.68 4 6 4 C6 7.3 6 10.6 6 14 C4.35 14 2.7 14 1 14 C0.67 9.38 0.34 4.76 0 0 Z " fill="#F3FAFA" transform="translate(297,563)"/>
<path d="M0 0 C1.65 0 3.3 0 5 0 C5.33 1.98 5.66 3.96 6 6 C6.66 4.02 7.32 2.04 8 0 C9.32 0 10.64 0 12 0 C12.33 1.32 12.66 2.64 13 4 C13.33 2.68 13.66 1.36 14 0 C15.65 0 17.3 0 19 0 C18.85795259 1.58367747 18.71119847 3.16693318 18.5625 4.75 C18.48128906 5.63171875 18.40007813 6.5134375 18.31640625 7.421875 C18.03761535 9.69350452 17.61209423 11.79851823 17 14 C14.125 14.125 14.125 14.125 11 14 C10.34 13.34 9.68 12.68 9 12 C8.67 12.66 8.34 13.32 8 14 C6.02 14 4.04 14 2 14 C-0.29612756 4.58997722 -0.29612756 4.58997722 0 0 Z " fill="#F2F9FA" transform="translate(735,563)"/>
<path d="M0 0 C2.79192205 -0.05380578 5.5828141 -0.09357669 8.375 -0.125 C9.1690625 -0.14175781 9.963125 -0.15851562 10.78125 -0.17578125 C12.85492015 -0.19335473 14.92883241 -0.10335168 17 0 C19 2 19 2 19.1953125 4.6015625 C19.17210937 5.59929688 19.14890625 6.59703125 19.125 7.625 C19.10695313 8.62789062 19.08890625 9.63078125 19.0703125 10.6640625 C19.04710937 11.43492187 19.02390625 12.20578125 19 13 C17.68 13 16.36 13 15 13 C14.67 10.36 14.34 7.72 14 5 C13.67 5 13.34 5 13 5 C12.67 7.97 12.34 10.94 12 14 C10.68 14 9.36 14 8 14 C8 10.7 8 7.4 8 4 C7.34 4 6.68 4 6 4 C6 7.3 6 10.6 6 14 C4.35 14 2.7 14 1 14 C0.67 9.38 0.34 4.76 0 0 Z " fill="#F6FBFB" transform="translate(680,563)"/>
<path d="M0 0 C2.3828125 -0.29296875 2.3828125 -0.29296875 5.125 -0.1875 C6.03507812 -0.16042969 6.94515625 -0.13335938 7.8828125 -0.10546875 C8.58148438 -0.07066406 9.28015625 -0.03585937 10 0 C10.10792837 2.60527105 10.18724878 5.20608311 10.25 7.8125 C10.30027344 8.91948242 10.30027344 8.91948242 10.3515625 10.04882812 C10.45012837 15.4945927 10.45012837 15.4945927 8.21875 18 C5.09749556 19.40676256 2.37550776 19.19474083 -1 19 C-1 17.68 -1 16.36 -1 15 C0.98 15 2.96 15 5 15 C5 14.34 5 13.68 5 13 C3.02 13 1.04 13 -1 13 C-2.5635348 9.87293041 -2.39958487 6.42017557 -2 3 C-1.34 2.01 -0.68 1.02 0 0 Z " fill="#EAF6F7" transform="translate(364,563)"/>
<path d="M0 0 C1 1 1 1 1.09765625 4.59765625 C1.0909822 6.08596867 1.07902183 7.57426432 1.0625 9.0625 C1.05798828 9.82111328 1.05347656 10.57972656 1.04882812 11.36132812 C1.0370068 13.24091871 1.01907078 15.12046899 1 17 C-2.98352209 19.30903272 -5.50114053 18.86516528 -10 18 C-10 17.01 -10 16.02 -10 15 C-8.02 15 -6.04 15 -4 15 C-4 14.34 -4 13.68 -4 13 C-5.175625 13.0928125 -5.175625 13.0928125 -6.375 13.1875 C-7.674375 13.0946875 -7.674375 13.0946875 -9 13 C-11.46324069 9.30513897 -11.38991688 7.36706908 -11 3 C-8.76166815 -1.33676796 -4.2642019 -0.2751098 0 0 Z " fill="#ECF2F2" transform="translate(489,668)"/>
<path d="M0 0 C1.65 0 3.3 0 5 0 C5.33 6.27 5.66 12.54 6 19 C2.44646071 20.1845131 -0.27013478 20.26641894 -4 20 C-5.9375 19 -5.9375 19 -7 17 C-7.57737956 12.5299647 -7.54393252 9.81589878 -5 6 C-2.375 5.8125 -2.375 5.8125 0 6 C0 4.02 0 2.04 0 0 Z " fill="#EEF4F3" transform="translate(598,662)"/>
<path d="M0 0 C1.65 0 3.3 0 5 0 C5 0.99 5 1.98 5 3 C5.99 3 6.98 3 8 3 C7.67 4.32 7.34 5.64 7 7 C6.34 7 5.68 7 5 7 C5 10.3 5 13.6 5 17 C3.35 17 1.7 17 0 17 C-0.33 13.7 -0.66 10.4 -1 7 C-3.0745356 6.8509288 -3.0745356 6.8509288 -5 8 C-5.46651207 10.12576782 -5.46651207 10.12576782 -5.625 12.5625 C-5.69976563 13.38878906 -5.77453125 14.21507812 -5.8515625 15.06640625 C-5.90054688 15.70449219 -5.94953125 16.34257813 -6 17 C-7.65 16.67 -9.3 16.34 -11 16 C-11.33 11.71 -11.66 7.42 -12 3 C-10.68 3.33 -9.36 3.66 -8 4 C-7.67 3.67 -7.34 3.34 -7 3 C-4.66702567 2.95907063 -2.33294775 2.95758277 0 3 C0 2.01 0 1.02 0 0 Z " fill="#F0F5F4" transform="translate(569,665)"/>
<path d="M0 0 C1.65 0 3.3 0 5 0 C5 1.98 5 3.96 5 6 C5.78375 5.95875 6.5675 5.9175 7.375 5.875 C10 6 10 6 12 8 C12.1953125 10.6015625 12.1953125 10.6015625 12.125 13.625 C12.10695313 14.62789062 12.08890625 15.63078125 12.0703125 16.6640625 C12.03550781 17.82035156 12.03550781 17.82035156 12 19 C10.35 19.33 8.7 19.66 7 20 C7 16.7 7 13.4 7 10 C6.34 10 5.68 10 5 10 C5 13.3 5 16.6 5 20 C3.35 19.67 1.7 19.34 0 19 C0 12.73 0 6.46 0 0 Z " fill="#EDF7F8" transform="translate(453,557)"/>
<path d="M0 0 C3.5 0.4375 3.5 0.4375 5.4375 1.5 C7.13902633 4.6027833 6.92519574 6.97519185 6.5 10.4375 C4.9375 12.9375 4.9375 12.9375 2.5 14.4375 C-1.125 14.375 -1.125 14.375 -4.5 13.4375 C-6.82579101 9.94881349 -6.91865457 8.54031481 -6.5 4.4375 C-4.86658084 0.78632776 -4.0205891 0.50257364 0 0 Z " fill="#E7F5F6" transform="translate(414.5,562.5625)"/>
<path d="M0 0 C0.98871094 -0.01417969 1.97742188 -0.02835938 2.99609375 -0.04296875 C5.5625 0.1875 5.5625 0.1875 7.5625 2.1875 C7.7578125 5.0078125 7.7578125 5.0078125 7.6875 8.3125 C7.66945313 9.40820312 7.65140625 10.50390625 7.6328125 11.6328125 C7.60960937 12.47585938 7.58640625 13.31890625 7.5625 14.1875 C5.9125 14.1875 4.2625 14.1875 2.5625 14.1875 C2.5625 10.8875 2.5625 7.5875 2.5625 4.1875 C1.9025 4.1875 1.2425 4.1875 0.5625 4.1875 C0.5625 7.4875 0.5625 10.7875 0.5625 14.1875 C-1.0875 14.1875 -2.7375 14.1875 -4.4375 14.1875 C-4.49808594 13.58421875 -4.55867187 12.9809375 -4.62109375 12.359375 C-4.74677734 11.16054688 -4.74677734 11.16054688 -4.875 9.9375 C-4.95621094 9.14859375 -5.03742187 8.3596875 -5.12109375 7.546875 C-5.38621809 5.1887079 -5.38621809 5.1887079 -6.03515625 2.953125 C-6.16792969 2.37046875 -6.30070313 1.7878125 -6.4375 1.1875 C-4.69900372 -0.55099628 -2.3588363 0.01533704 0 0 Z " fill="#F0F8F9" transform="translate(780.4375,562.8125)"/>
<path d="M0 0 C1.32 0 2.64 0 4 0 C4 1.98 4 3.96 4 6 C4.78375 5.95875 5.5675 5.9175 6.375 5.875 C9 6 9 6 11 8 C11.1953125 10.8203125 11.1953125 10.8203125 11.125 14.125 C11.10695313 15.22070312 11.08890625 16.31640625 11.0703125 17.4453125 C11.03550781 18.70988281 11.03550781 18.70988281 11 20 C9.35 20 7.7 20 6 20 C6 16.7 6 13.4 6 10 C5.34 10 4.68 10 4 10 C4 12.97 4 15.94 4 19 C2.68 19 1.36 19 0 19 C0 12.73 0 6.46 0 0 Z " fill="#F5FBFB" transform="translate(512,557)"/>
<path d="M0 0 C1.65 0 3.3 0 5 0 C5 2.97 5 5.94 5 9 C5.66 9 6.32 9 7 9 C7 6.03 7 3.06 7 0 C8.65 0 10.3 0 12 0 C12 2.97 12 5.94 12 9 C12.66 9 13.32 9 14 9 C13.67 10.65 13.34 12.3 13 14 C11.3973218 14.10824843 9.79254252 14.18570645 8.1875 14.25 C7.29417969 14.29640625 6.40085937 14.3428125 5.48046875 14.390625 C3 14 3 14 1.1875 12.3125 C-0.22207489 9.56753837 -0.30854638 7.81650839 -0.1875 4.75 C-0.16042969 3.85796875 -0.13335937 2.9659375 -0.10546875 2.046875 C-0.07066406 1.37140625 -0.03585937 0.6959375 0 0 Z " fill="#EFF8F9" transform="translate(422,563)"/>
<path d="M0 0 C1.79093191 -0.08086147 3.58289628 -0.13912702 5.375 -0.1875 C6.87160156 -0.23970703 6.87160156 -0.23970703 8.3984375 -0.29296875 C9.25695312 -0.19628906 10.11546875 -0.09960938 11 0 C13.20914 3.31371 13.22481553 4.3446021 13.125 8.1875 C13.10695313 9.08855469 13.08890625 9.98960937 13.0703125 10.91796875 C13.03550781 11.94857422 13.03550781 11.94857422 13 13 C11.35 13.33 9.7 13.66 8 14 C8 10.7 8 7.4 8 4 C7.34 4 6.68 4 6 4 C6 6.97 6 9.94 6 13 C4.35 13.33 2.7 13.66 1 14 C1 10.7 1 7.4 1 4 C0.34 4 -0.32 4 -1 4 C-0.67 2.68 -0.34 1.36 0 0 Z " fill="#F0F8F9" transform="translate(333,563)"/>
<path d="M0 0 C2.5 0.4375 2.5 0.4375 4.3125 2 C6.24526228 5.9672489 6.02500142 9.62385874 4.8125 13.8125 C3.5 15.4375 3.5 15.4375 1.125 16.4375 C-1.5 16.4375 -1.5 16.4375 -3.8125 15.0625 C-6.19118704 11.36232016 -6.37842208 7.73464587 -5.5 3.4375 C-3.67518455 1.10839082 -2.95612292 0.51732151 0 0 Z " fill="#6EC2C8" transform="translate(533.5,194.5625)"/>
<path d="M0 0 C3.96 0 7.92 0 12 0 C13.38226016 2.76452033 13.09525387 5.0461363 13.0625 8.125 C13.05347656 9.22070312 13.04445313 10.31640625 13.03515625 11.4453125 C13.02355469 12.28835938 13.01195312 13.13140625 13 14 C11.35 14 9.7 14 8 14 C8 10.7 8 7.4 8 4 C7.34 4 6.68 4 6 4 C6 6.97 6 9.94 6 13 C4.35 13 2.7 13 1 13 C0.67 8.71 0.34 4.42 0 0 Z " fill="#F0F8F9" transform="translate(706,563)"/>
<path d="M0 0 C3.39471203 -0.37033222 5.88907484 -0.60921702 8.9375 1.0625 C10.61903731 4.12883274 10.36051184 6.57513751 10 10 C8.875 12.4375 8.875 12.4375 7 14 C3.87757843 14.45535315 1.93163039 14.49686954 -0.875 13 C-2.64629177 9.85103686 -2.54794453 6.52961671 -2 3 C-1.34 2.01 -0.68 1.02 0 0 Z " fill="#EBF6F7" transform="translate(668,563)"/>
<path d="M0 0 C3.4375 0.375 3.4375 0.375 5.4375 2.375 C5.73828125 4.43359375 5.73828125 4.43359375 5.75 6.8125 C5.76675781 7.59496094 5.78351562 8.37742187 5.80078125 9.18359375 C5.4375 11.375 5.4375 11.375 4.140625 13.16796875 C2.4375 14.375 2.4375 14.375 -1.125 14.25 C-4.5625 13.375 -4.5625 13.375 -6.5625 10.375 C-6.90995351 7.10893703 -6.84623354 5.00922792 -5.5 2 C-3.5625 0.375 -3.5625 0.375 0 0 Z " fill="#EBF6F7" transform="translate(727.5625,562.625)"/>
<path d="M0 0 C1.875 1.0625 1.875 1.0625 3 3 C3.504958 6.9675271 3.61854451 9.10654682 1.3125 12.4375 C-1.45005055 14.30408821 -2.73235745 14.58649994 -6 14 C-7.8125 13 -7.8125 13 -9 11 C-9.54662881 7.40572839 -9.68324933 4.21466547 -7.875 1 C-5.10184376 -0.47901666 -3.08815875 -0.38601984 0 0 Z " fill="#ECF7F7" transform="translate(770,563)"/>
<path d="M0 0 C6.0546875 -0.1953125 6.0546875 -0.1953125 8 0 C10.77744395 2.77744395 10.53698444 5.16358534 11 9 C11.30903983 10.33917261 11.62942911 11.67653254 12 13 C8.31620978 14.17881287 4.84458427 14.21358801 1 14 C-1 12 -1 12 -1.1875 8.9375 C-1 6 -1 6 0 5 C1.66617115 4.95936168 3.33388095 4.957279 5 5 C5 4.34 5 3.68 5 3 C3.35 3 1.7 3 0 3 C0 2.01 0 1.02 0 0 Z " fill="#F0F8F9" transform="translate(481,563)"/>
<path d="M0 0 C1.27875 -0.061875 2.5575 -0.12375 3.875 -0.1875 C4.95394531 -0.23970703 4.95394531 -0.23970703 6.0546875 -0.29296875 C6.69664062 -0.19628906 7.33859375 -0.09960938 8 0 C10.18994248 3.28491373 10.35277339 4.83095639 10.625 8.6875 C10.69976562 9.68136719 10.77453125 10.67523437 10.8515625 11.69921875 C10.90054687 12.45847656 10.94953125 13.21773437 11 14 C9.39667209 14.08121924 7.79215974 14.13929134 6.1875 14.1875 C5.29417969 14.22230469 4.40085937 14.25710938 3.48046875 14.29296875 C1 14 1 14 -0.83984375 12.65234375 C-2 11 -2 11 -1.75 8.375 C-1 6 -1 6 0 5 C1.66617115 4.95936168 3.33388095 4.957279 5 5 C5 4.34 5 3.68 5 3 C3.35 3 1.7 3 0 3 C0 2.01 0 1.02 0 0 Z " fill="#F0F9F9" transform="translate(349,563)"/>
<path d="M0 0 C6.0546875 -0.1953125 6.0546875 -0.1953125 8 0 C10.68092691 2.68092691 10.38670257 4.39167363 10.625 8.125 C10.69976563 9.22070312 10.77453125 10.31640625 10.8515625 11.4453125 C10.92503906 12.70988281 10.92503906 12.70988281 11 14 C2.80743982 14.4726477 2.80743982 14.4726477 -0.5625 12.5 C-1.036875 12.005 -1.51125 11.51 -2 11 C-1.125 6.125 -1.125 6.125 0 5 C1.66617115 4.95936168 3.33388095 4.957279 5 5 C5 4.34 5 3.68 5 3 C3.35 3 1.7 3 0 3 C0 2.01 0 1.02 0 0 Z " fill="#EEF4F3" transform="translate(544,668)"/>
<path d="M0 0 C1.27875 -0.061875 2.5575 -0.12375 3.875 -0.1875 C4.95394531 -0.23970703 4.95394531 -0.23970703 6.0546875 -0.29296875 C6.69664062 -0.19628906 7.33859375 -0.09960938 8 0 C10.18994248 3.28491373 10.35277339 4.83095639 10.625 8.6875 C10.69976562 9.68136719 10.77453125 10.67523437 10.8515625 11.69921875 C10.90054687 12.45847656 10.94953125 13.21773437 11 14 C10.22914063 13.82210937 9.45828125 13.64421875 8.6640625 13.4609375 C5.99520792 12.81895677 5.99520792 12.81895677 3.375 13.625 C1 14 1 14 -0.875 12.875 C-2 11 -2 11 -1.75 8.375 C-1 6 -1 6 0 5 C1.66617115 4.95936168 3.33388095 4.957279 5 5 C5 4.34 5 3.68 5 3 C3.35 3 1.7 3 0 3 C0 2.01 0 1.02 0 0 Z " fill="#F1F9F9" transform="translate(320,563)"/>
<path d="M0 0 C0.804375 0.12375 1.60875 0.2475 2.4375 0.375 C4.58303377 3.59330065 4.73333868 4.64286507 4.75 8.375 C4.76675781 9.24125 4.78351562 10.1075 4.80078125 11 C4.4375 13.375 4.4375 13.375 3.078125 15.1953125 C1.4375 16.375 1.4375 16.375 -1.125 16.25 C-3.5625 15.375 -3.5625 15.375 -5.5625 12.375 C-5.86328125 10.21875 -5.86328125 10.21875 -5.875 7.875 C-5.89175781 7.1015625 -5.90851562 6.328125 -5.92578125 5.53125 C-5.30719176 1.85962205 -3.60153025 0.52705321 0 0 Z " fill="#6AC1C6" transform="translate(668.5625,194.625)"/>
<path d="M0 0 C1.65 0 3.3 0 5 0 C5.66 1.32 6.32 2.64 7 4 C7.33 2.68 7.66 1.36 8 0 C9.98 0 11.96 0 14 0 C12 6 10 12 8 18 C6.02 18 4.04 18 2 18 C2.226875 16.700625 2.45375 15.40125 2.6875 14.0625 C3.30424986 8.81179172 2.01293571 4.81057518 0 0 Z " fill="#F5FBFB" transform="translate(604,563)"/>
<path d="M0 0 C2.375 -0.1875 2.375 -0.1875 5 0 C5.66 0.99 6.32 1.98 7 3 C7.33 2.01 7.66 1.02 8 0 C9.65 0 11.3 0 13 0 C11.83805848 6.46712188 9.8751252 12.09622349 7 18 C5.35 18 3.7 18 2 18 C2.226875 17.01 2.45375 16.02 2.6875 15 C3.27971966 11.06253955 2.28817645 8.37707724 0.69140625 4.796875 C0 3 0 3 0 0 Z " fill="#F7FBFC" transform="translate(394,563)"/>
<path d="M0 0 C2 2 2 2 2.3125 4.5 C2.1578125 5.7375 2.1578125 5.7375 2 7 C1.01 7.66 0.02 8.32 -1 9 C-0.34 9.33 0.32 9.66 1 10 C0.67 11.32 0.34 12.64 0 14 C-3.49644963 14.31785906 -5.397402 14.39644605 -8.375 12.4375 C-10.5996142 9.1005787 -10.50030235 6.93094707 -10 3 C-7.77611809 -1.05531408 -4.20231132 -0.3820283 0 0 Z " fill="#EEF8F8" transform="translate(579,563)"/>
<path d="M0 0 C3.4375 0.375 3.4375 0.375 5.4375 2.375 C5.6875 4.875 5.6875 4.875 5.4375 7.375 C4.7775 8.035 4.1175 8.695 3.4375 9.375 C3.84679986 11.42896726 3.84679986 11.42896726 4.4375 13.375 C3.4375 14.375 3.4375 14.375 0.625 14.6875 C-2.5625 14.375 -2.5625 14.375 -4.9375 12.75 C-7.0378727 9.68022452 -7.09543835 8.02943439 -6.5625 4.375 C-4.91004693 0.68128136 -4.08263587 0.42975114 0 0 Z " fill="#EEF8F8" transform="translate(632.5625,562.625)"/>
<path d="M0 0 C3.4375 0.375 3.4375 0.375 5.4375 2.375 C5.5625 5 5.5625 5 5.4375 7.375 C3.4575 8.365 3.4575 8.365 1.4375 9.375 C2.4275 9.705 3.4175 10.035 4.4375 10.375 C4.1075 11.695 3.7775 13.015 3.4375 14.375 C-0.09927664 14.69652515 -1.9587104 14.7881192 -4.9375 12.75 C-7.0378727 9.68022452 -7.09543835 8.02943439 -6.5625 4.375 C-4.91004693 0.68128136 -4.08263587 0.42975114 0 0 Z " fill="#EEF4F3" transform="translate(498.5625,667.625)"/>
<path d="M0 0 C2.4375 0.375 2.4375 0.375 5 1 C5.33 1.66 5.66 2.32 6 3 C6.33 2.67 6.66 2.34 7 2 C8.66617115 1.95936168 10.33388095 1.957279 12 2 C10.83348574 7.92863717 9.24480642 13.38798394 7 19 C5.35 19 3.7 19 2 19 C2.226875 17.824375 2.45375 16.64875 2.6875 15.4375 C3.30189466 10.74651378 2.02126441 8.20422997 0 4 C0 2.68 0 1.36 0 0 Z " fill="#F4FAFA" transform="translate(525,563)"/>
<path d="M0 0 C3.5 -0.3125 3.5 -0.3125 7 0 C9 2 9 2 9.25 4.5 C9 7 9 7 7 9 C7.66 9.33 8.32 9.66 9 10 C9 10.99 9 11.98 9 13 C6.20129973 14.39935013 4.09501208 14.25265405 1 14 C-0.875 13 -0.875 13 -2 11 C-2.58606955 6.53470816 -2.54014875 3.81022313 0 0 Z " fill="#F0F9F9" transform="translate(469,563)"/>
<path d="M0 0 C3.5 -0.3125 3.5 -0.3125 7 0 C9 2 9 2 9.25 4.5 C9 7 9 7 7 9 C7.66 9.33 8.32 9.66 9 10 C9 10.99 9 11.98 9 13 C2.80645161 14.3101737 2.80645161 14.3101737 -0.4375 13.0625 C-2.5227599 10.30995693 -2.39985907 8.3125588 -2.3359375 4.9375 C-2 3 -2 3 0 0 Z " fill="#F0F5F4" transform="translate(580,668)"/>
<path d="M0 0 C2 2 2 2 2.25 4.5 C2 7 2 7 0 9 C0.40929986 11.05396726 0.40929986 11.05396726 1 13 C0 14 0 14 -2.875 14.25 C-6 14 -6 14 -7.875 13 C-9.68523932 9.78179676 -9.53967465 6.59783102 -9 3 C-6.88804118 -0.75459346 -4.01124771 -0.42672848 0 0 Z " fill="#F3FAFA" transform="translate(385,563)"/>
<path d="M0 0 C2.33944736 0.28730055 4.6739143 0.61936779 7 1 C6.67 1.99 6.34 2.98 6 4 C5.01 4 4.02 4 3 4 C3 4.66 3 5.32 3 6 C3.66 6 4.32 6 5 6 C5 7.32 5 8.64 5 10 C4.34 10 3.68 10 3 10 C3 13.3 3 16.6 3 20 C1.35 20 -0.3 20 -2 20 C-2 16.7 -2 13.4 -2 10 C-2.66 10 -3.32 10 -4 10 C-4 8.68 -4 7.36 -4 6 C-3.34 6 -2.68 6 -2 6 C-1.855625 5.195625 -1.71125 4.39125 -1.5625 3.5625 C-1 1 -1 1 0 0 Z " fill="#EFF8F9" transform="translate(648,557)"/>
<path d="M0 0 C2 1.25 2 1.25 3 3 C3 4.65 3 6.3 3 8 C-2.61 8 -8.22 8 -14 8 C-13 3 -13 3 -11 0 C-7.07750895 -1.30749702 -3.99115364 -0.93126918 0 0 Z " fill="#66BDC2" transform="translate(510,473)"/>
<path d="M0 0 C1.2065625 0.0309375 1.2065625 0.0309375 2.4375 0.0625 C2.7675 1.3825 3.0975 2.7025 3.4375 4.0625 C2.1175 4.0625 0.7975 4.0625 -0.5625 4.0625 C-0.5625 4.7225 -0.5625 5.3825 -0.5625 6.0625 C0.4275 6.0625 1.4175 6.0625 2.4375 6.0625 C2.4375 7.3825 2.4375 8.7025 2.4375 10.0625 C1.7775 10.0625 1.1175 10.0625 0.4375 10.0625 C0.4375 13.3625 0.4375 16.6625 0.4375 20.0625 C-1.2125 20.0625 -2.8625 20.0625 -4.5625 20.0625 C-4.5625 16.4325 -4.5625 12.8025 -4.5625 9.0625 C-5.2225 9.0625 -5.8825 9.0625 -6.5625 9.0625 C-6.5625 8.0725 -6.5625 7.0825 -6.5625 6.0625 C-5.9025 6.0625 -5.2425 6.0625 -4.5625 6.0625 C-4.418125 5.258125 -4.27375 4.45375 -4.125 3.625 C-3.347189 0.08163876 -3.347189 0.08163876 0 0 Z " fill="#F2F9FA" transform="translate(565.5625,556.9375)"/>
<path d="M0 0 C2.05078125 0.03255208 4.1015625 0.06510417 6.15234375 0.09765625 C6.15234375 1.08765625 6.15234375 2.07765625 6.15234375 3.09765625 C4.83234375 3.42765625 3.51234375 3.75765625 2.15234375 4.09765625 C3.47234375 5.08765625 4.79234375 6.07765625 6.15234375 7.09765625 C5.27734375 11.84765625 5.27734375 11.84765625 4.15234375 14.09765625 C1.84234375 14.09765625 -0.46765625 14.09765625 -2.84765625 14.09765625 C-3.50765625 12.77765625 -4.16765625 11.45765625 -4.84765625 10.09765625 C-3.19765625 9.76765625 -1.54765625 9.43765625 0.15234375 9.09765625 C-1.16765625 8.10765625 -2.48765625 7.11765625 -3.84765625 6.09765625 C-2.77957394 0.14691194 -2.77957394 0.14691194 0 0 Z " fill="#F2F6F6" transform="translate(524.84765625,667.90234375)"/>
<path d="M0 0 C7.83360278 2.20320078 13.5942536 8.92980187 17.8125 15.578125 C19.75964192 19.54926971 20.47160337 23.63617267 21 28 C17.91304347 25.94202898 17.53720632 25.40077816 16.0625 22.25 C13.17734895 16.7655333 9.21298206 12.372916 5.10180664 7.78613281 C1.09458217 3.28374652 1.09458217 3.28374652 0 0 Z " fill="#C5ECDE" transform="translate(488,314)"/>
<path d="M0 0 C2.05078125 0.03255208 4.1015625 0.06510417 6.15234375 0.09765625 C6.15234375 1.08765625 6.15234375 2.07765625 6.15234375 3.09765625 C4.83234375 3.09765625 3.51234375 3.09765625 2.15234375 3.09765625 C2.15234375 3.75765625 2.15234375 4.41765625 2.15234375 5.09765625 C4.62734375 6.08765625 4.62734375 6.08765625 7.15234375 7.09765625 C6.40234375 11.84765625 6.40234375 11.84765625 4.15234375 14.09765625 C1.02734375 14.22265625 1.02734375 14.22265625 -1.84765625 14.09765625 C-2.50765625 12.77765625 -3.16765625 11.45765625 -3.84765625 10.09765625 C-2.52765625 9.76765625 -1.20765625 9.43765625 0.15234375 9.09765625 C-0.83765625 8.43765625 -1.82765625 7.77765625 -2.84765625 7.09765625 C-3.09765625 4.03515625 -3.09765625 4.03515625 -2.84765625 1.09765625 C-1.84765625 0.09765625 -1.84765625 0.09765625 0 0 Z " fill="#F4FAFB" transform="translate(585.84765625,562.90234375)"/>
<path d="M0 0 C1.65 0 3.3 0 5 0 C5 0.99 5 1.98 5 3 C5.99 3 6.98 3 8 3 C8 4.32 8 5.64 8 7 C7.34 7 6.68 7 6 7 C6 9.97 6 12.94 6 16 C4.34385343 16.38218767 2.67542976 16.71395102 1 17 C-0.85937218 15.14062782 -0.4315512 12.12878015 -0.625 9.625 C-0.72039063 8.46226562 -0.81578125 7.29953125 -0.9140625 6.1015625 C-1 3 -1 3 0 0 Z " fill="#E7EFEE" transform="translate(534,665)"/>
<path d="M0 0 C1.65 0 3.3 0 5 0 C5 0.99 5 1.98 5 3 C5.66 3 6.32 3 7 3 C7 4.32 7 5.64 7 7 C6.34 7 5.68 7 5 7 C5 10.3 5 13.6 5 17 C3.35 17 1.7 17 0 17 C0 13.7 0 10.4 0 7 C-0.66 7 -1.32 7 -2 7 C-2 5.68 -2 4.36 -2 3 C-1.34 3 -0.68 3 0 3 C0 2.01 0 1.02 0 0 Z " fill="#F6FBFB" transform="translate(596,560)"/>
<path d="M0 0 C1.65 0 3.3 0 5 0 C5 0.99 5 1.98 5 3 C5.66 3 6.32 3 7 3 C7 4.32 7 5.64 7 7 C6.34 7 5.68 7 5 7 C5 10.3 5 13.6 5 17 C3.35 17 1.7 17 0 17 C0 13.7 0 10.4 0 7 C-0.66 7 -1.32 7 -2 7 C-2 5.68 -2 4.36 -2 3 C-1.34 3 -0.68 3 0 3 C0 2.01 0 1.02 0 0 Z " fill="#F6FBFB" transform="translate(503,560)"/>
<path d="M0 0 C1.65 0 3.3 0 5 0 C5 6.6 5 13.2 5 20 C3.35 20 1.7 20 0 20 C0 13.4 0 6.8 0 0 Z " fill="#F0F8F9" transform="translate(494,557)"/>
<path d="M0 0 C1.65 0 3.3 0 5 0 C5 0.99 5 1.98 5 3 C5.66 3 6.32 3 7 3 C7 3.99 7 4.98 7 6 C6.34 6 5.68 6 5 6 C5 9.63 5 13.26 5 17 C3.35 17 1.7 17 0 17 C0 13.7 0 10.4 0 7 C-0.66 7 -1.32 7 -2 7 C-2 5.68 -2 4.36 -2 3 C-1.34 3 -0.68 3 0 3 C0 2.01 0 1.02 0 0 Z " fill="#F4F7F7" transform="translate(507,665)"/>
<path d="M0 0 C1.65 0 3.3 0 5 0 C5 6.27 5 12.54 5 19 C3.35 19 1.7 19 0 19 C0 12.73 0 6.46 0 0 Z " fill="#F0F5F3" transform="translate(545,558)"/>
<path d="M0 0 C1.65 0 3.3 0 5 0 C5 6.27 5 12.54 5 19 C3.35 19 1.7 19 0 19 C0 12.73 0 6.46 0 0 Z " fill="#EFF8F9" transform="translate(619,557)"/>
<path d="M0 0 C3.3 0 6.6 0 10 0 C9.67 1.65 9.34 3.3 9 5 C8.34 5 7.68 5 7 5 C6.67 7.97 6.34 10.94 6 14 C4.35 14 2.7 14 1 14 C0.67 9.38 0.34 4.76 0 0 Z " fill="#EFF8F9" transform="translate(437,563)"/>
<path d="M0 0 C0.33 0 0.66 0 1 0 C2.90420731 6.80074041 4.40850553 12.91923749 4 20 C3.01 20.33 2.02 20.66 1 21 C0.34 20.67 -0.32 20.34 -1 20 C-1.5625 17.48828125 -1.5625 17.48828125 -2 14.3125 C-2.6452289 10.01609484 -3.41764224 6.06891995 -5 2 C-3.515 2.99 -3.515 2.99 -2 4 C-1.34 2.68 -0.68 1.36 0 0 Z " fill="#6AA999" transform="translate(515,351)"/>
<path d="M0 0 C2.475 0.495 2.475 0.495 5 1 C7.23167185 0.63143136 7.23167185 0.63143136 9 0 C9 1.32 9 2.64 9 4 C8.01 4.495 8.01 4.495 7 5 C6.53348793 7.12576782 6.53348793 7.12576782 6.375 9.5625 C6.30023437 10.38878906 6.22546875 11.21507812 6.1484375 12.06640625 C6.09945312 12.70449219 6.05046875 13.34257813 6 14 C4.35 14 2.7 14 1 14 C0.67 9.38 0.34 4.76 0 0 Z " fill="#F6FBFB" transform="translate(655,563)"/>
<path d="M0 0 C0.94875 0.04125 1.8975 0.0825 2.875 0.125 C3.535 1.775 4.195 3.425 4.875 5.125 C3.75 6.6875 3.75 6.6875 1.875 8.125 C-1.3125 7.8125 -1.3125 7.8125 -4.125 7.125 C-4.75 4.75 -4.75 4.75 -5.125 2.125 C-3.125 0.125 -3.125 0.125 0 0 Z " fill="#5BA196" transform="translate(453.125,452.875)"/>
<path d="M0 0 C0.99 0.33 1.98 0.66 3 1 C1.83593677 2.16406323 0.67129061 3.32754865 -0.49609375 4.48828125 C-1.5403339 5.53794602 -2.57347976 6.59871848 -3.59765625 7.66796875 C-5.02861348 9.14814809 -6.51152221 10.57767678 -8 12 C-8.66 12 -9.32 12 -10 12 C-10.23460937 12.56203125 -10.46921875 13.1240625 -10.7109375 13.703125 C-12.30663 16.54635891 -14.28924543 18.48098127 -16.625 20.75 C-17.44226563 21.54921875 -18.25953125 22.3484375 -19.1015625 23.171875 C-19.72804688 23.77515625 -20.35453125 24.3784375 -21 25 C-21.66 24.67 -22.32 24.34 -23 24 C-22.34 23.360625 -21.68 22.72125 -21 22.0625 C-18.56519299 19.64148793 -16.3155392 17.09034641 -14.0625 14.5 C-11.71196532 11.82510042 -9.39692618 9.36151746 -6.625 7.125 C-3.84516675 5.09024811 -3.84516675 5.09024811 -2 2 C-1.34 2 -0.68 2 0 2 C0 1.34 0 0.68 0 0 Z " fill="#6FAB9E" transform="translate(599,362)"/>
<path d="M0 0 C1.32 0 2.64 0 4 0 C4 4.29 4 8.58 4 13 C2.68 13 1.36 13 0 13 C0 8.71 0 4.42 0 0 Z " fill="#FDFEFE" transform="translate(553,563)"/>
<path d="M0 0 C0.99 0.33 1.98 0.66 3 1 C1.25904321 2.82200133 -0.49177132 4.63229575 -2.25 6.4375 C-2.98669922 7.2119043 -2.98669922 7.2119043 -3.73828125 8.00195312 C-8.30164195 12.65658104 -8.30164195 12.65658104 -12 13 C-8.19524578 8.43969176 -4.25030379 4.14910608 0 0 Z " fill="#D1EEE8" transform="translate(604,317)"/>
<path d="M0 0 C2.96527758 2.4453385 3.55582214 4.44602347 4.1875 8.1875 C4.34605469 9.08855469 4.50460937 9.98960937 4.66796875 10.91796875 C4.83232422 11.94857422 4.83232422 11.94857422 5 13 C1.9072219 10.93814793 1.31923802 10.09630198 -0.1875 6.875 C-0.70376953 5.78832031 -0.70376953 5.78832031 -1.23046875 4.6796875 C-1.48441406 4.12539063 -1.73835938 3.57109375 -2 3 C-1.34 3 -0.68 3 0 3 C0 2.01 0 1.02 0 0 Z " fill="#B3E0D3" transform="translate(504,329)"/>
<path d="M0 0 C0.66 0.33 1.32 0.66 2 1 C2 3.64 2 6.28 2 9 C3.32 9.33 4.64 9.66 6 10 C3.69 10 1.38 10 -1 10 C-1.02689216 8.52093108 -1.04634621 7.04172517 -1.0625 5.5625 C-1.07410156 4.73878906 -1.08570313 3.91507813 -1.09765625 3.06640625 C-1 1 -1 1 0 0 Z " fill="#92D1D6" transform="translate(693,567)"/>
<path d="M0 0 C0.66 0 1.32 0 2 0 C2.103125 0.598125 2.20625 1.19625 2.3125 1.8125 C3.08876455 4.28243264 4.07088921 5.32251235 6 7 C1.66666667 7 -2.66666667 7 -7 7 C-5 6 -3 5 -1 4 C-0.34786708 1.97536745 -0.34786708 1.97536745 0 0 Z " fill="#7BC8CD" transform="translate(581,566)"/>
<path d="M0 0 C1.67542976 0.28604898 3.34385343 0.61781233 5 1 C5 2.32 5 3.64 5 5 C3.35 5 1.7 5 0 5 C-0.5625 3.0625 -0.5625 3.0625 -1 1 C-0.67 0.67 -0.34 0.34 0 0 Z " fill="#D8EFF0" transform="translate(553,557)"/>
<path d="M0 0 C0.66 0.33 1.32 0.66 2 1 C-3 7.57142857 -3 7.57142857 -8 9 C-5.68462045 5.27885429 -3.71420527 2.38770339 0 0 Z " fill="#70AA9C" transform="translate(600,303)"/>
<path d="M0 0 C1.65 0 3.3 0 5 0 C5 2.31 5 4.62 5 7 C4.67 6.01 4.34 5.02 4 4 C2.68 4 1.36 4 0 4 C0 2.68 0 1.36 0 0 Z " fill="#FCFCFC" transform="translate(545,558)"/>
<path d="M0 0 C0.66 0.33 1.32 0.66 2 1 C0.54712339 2.33927721 -0.91247259 3.67126847 -2.375 5 C-3.18710937 5.7425 -3.99921875 6.485 -4.8359375 7.25 C-7 9 -7 9 -9 9 C-7.48328036 4.44984107 -3.83108947 2.49942736 0 0 Z " fill="#BDE8DA" transform="translate(473,280)"/>
<path d="M0 0 C0.99 0.33 1.98 0.66 3 1 C2.34 3.31 1.68 5.62 1 8 C0.34 8 -0.32 8 -1 8 C-1.625 5.6875 -1.625 5.6875 -2 3 C-1.34 2.01 -0.68 1.02 0 0 Z " fill="#6EA89B" transform="translate(531,332)"/>
<path d="M0 0 C2.1519437 3.22791555 2.20086443 4.28400809 2 8 C-0.64 7.67 -3.28 7.34 -6 7 C-5.071875 6.6596875 -5.071875 6.6596875 -4.125 6.3125 C-1.38589791 4.62070165 -0.94975528 3.00755839 0 0 Z " fill="#8ACED2" transform="translate(478,566)"/>
<path d="M0 0 C0.33 0 0.66 0 1 0 C2.10228696 4.40914783 2.07654536 8.48382401 2 13 C1.67 13 1.34 13 1 13 C0.67 11.35 0.34 9.7 0 8 C-0.33 8 -0.66 8 -1 8 C-0.67 5.36 -0.34 2.72 0 0 Z " fill="#7EC9CE" transform="translate(679,563)"/>
<path d="M0 0 C0.33 0.66 0.66 1.32 1 2 C1.99 2.33 2.98 2.66 4 3 C3.01 3 2.02 3 1 3 C1 4.32 1 5.64 1 7 C0.34 7 -0.32 7 -1 7 C-1 5.68 -1 4.36 -1 3 C-1.66 3 -2.32 3 -3 3 C-3 2.34 -3 1.68 -3 1 C-2.01 0.67 -1.02 0.34 0 0 Z " fill="#83CBD0" transform="translate(654,560)"/>
<path d="M0 0 C3.65316671 1.24976756 4.78065836 1.67098753 7 5 C6.34 5.66 5.68 6.32 5 7 C3.29115995 5.37660195 1.62553283 3.70680947 0 2 C0 1.34 0 0.68 0 0 Z " fill="#BAE5D9" transform="translate(488,314)"/>
<path d="M0 0 C0.99 0.33 1.98 0.66 3 1 C1.35 2.65 -0.3 4.3 -2 6 C-2.99 5.67 -3.98 5.34 -5 5 C-3.35 3.35 -1.7 1.7 0 0 Z " fill="#D3EFEA" transform="translate(583,338)"/>
<path d="M0 0 C-2.97 2.475 -2.97 2.475 -6 5 C-6 3.35 -6 1.7 -6 0 C-3.50907189 -1.24546405 -2.58919267 -0.7767578 0 0 Z " fill="#D4F0E8" transform="translate(584,320)"/>
<path d="M0 0 C0.33 0 0.66 0 1 0 C1 2.97 1 5.94 1 9 C0.01 8.67 -0.98 8.34 -2 8 C-1.125 1.125 -1.125 1.125 0 0 Z " fill="#9CD5D9" transform="translate(581,200)"/>
<path d="M0 0 C0.66 0 1.32 0 2 0 C0.55746343 3.36591866 -1.33264727 5.51047079 -4 8 C-4.66 7.67 -5.32 7.34 -6 7 C-5.04882866 5.8274869 -4.08882991 4.66212985 -3.125 3.5 C-2.59132813 2.8503125 -2.05765625 2.200625 -1.5078125 1.53125 C-0.76144531 0.77328125 -0.76144531 0.77328125 0 0 Z " fill="#6EA899" transform="translate(587,315)"/>
</svg>
