<svg width="42" height="43" viewBox="0 0 42 43" fill="none" xmlns="http://www.w3.org/2000/svg">
<path d="M37.3333 0C38.571 0 39.758 0.503371 40.6332 1.39938C41.5083 2.29539 42 3.51063 42 4.77778V38.2222C42 39.4894 41.5083 40.7046 40.6332 41.6006C39.758 42.4966 38.571 43 37.3333 43H4.66667C3.42899 43 2.242 42.4966 1.36683 41.6006C0.491665 40.7046 0 39.4894 0 38.2222V4.77778C0 3.51063 0.491665 2.29539 1.36683 1.39938C2.242 0.503371 3.42899 0 4.66667 0H37.3333ZM36.1667 37.0278V24.3667C36.1667 22.3012 35.3652 20.3204 33.9387 18.8599C32.5122 17.3994 30.5774 16.5789 28.56 16.5789C26.5767 16.5789 24.2667 17.8211 23.1467 19.6844V17.0328H16.6367V37.0278H23.1467V25.2506C23.1467 23.4111 24.5933 21.9061 26.39 21.9061C27.2564 21.9061 28.0873 22.2585 28.6999 22.8857C29.3125 23.5129 29.6567 24.3636 29.6567 25.2506V37.0278H36.1667ZM9.05333 13.2822C10.093 13.2822 11.09 12.8594 11.8252 12.1067C12.5603 11.3541 12.9733 10.3333 12.9733 9.26889C12.9733 7.04722 11.2233 5.23167 9.05333 5.23167C8.0075 5.23167 7.00449 5.65702 6.26498 6.41414C5.52546 7.17127 5.11 8.19815 5.11 9.26889C5.11 11.4906 6.88333 13.2822 9.05333 13.2822ZM12.2967 37.0278V17.0328H5.83333V37.0278H12.2967Z" fill="black"/>
</svg>
